<svg width="872" height="847" viewBox="0 0 872 847" fill="none" xmlns="http://www.w3.org/2000/svg">
<path d="M931.84 0.679993H-39.16V851.68H931.84V0.679993Z" fill="#545554"/>
<path d="M82.13 430.21L82.55 405.58L94.67 157.62L198.79 123.61H209.84L346.76 108.94L364.25 143.85L417.72 169.39L540.33 273.63L558.23 413.02L556.96 433.89L544.23 496.22L464.92 586.03L433.04 665.59L365.98 663.73L357.66 616.3L307.55 615.5L216.56 617.93L168.91 610.13L162.53 570.52L108.48 552.23C108.48 552.23 87.88 482.08 89.97 477.38C92.06 472.69 82.13 430.21 82.13 430.21Z" fill="#E6EC9F"/>
<path d="M568.93 414.83L568 432.17L685.89 455.49L713.05 438.31L715.18 430.1L742.26 337.14L749.67 267.39V221.91L669.64 230.03H591.78L586.2 271.17L572.55 299.74L568.93 414.83Z" fill="#E6EC9F"/>
</svg>
