<svg width="872" height="850" viewBox="0 0 872 850" fill="none" xmlns="http://www.w3.org/2000/svg">
<path d="M622.19 591.67L628.71 597.12L677.54 549.58C674.07 546.03 670.54 542.4 667.06 538.77L613.48 583.89L622.19 591.67Z" fill="#DEEED2"/>
<path d="M653.1 619.31L703.82 575.1C699.62 571.43 694.15 566.22 688.12 560.24L638.14 605.12L636.13 601.47L683.62 555.74C683.49 555.61 683.36 555.48 683.23 555.35L634.16 602.37L653.1 619.31Z" fill="#DEEED2"/>
<path d="M562.86 615.65L600.29 584.26L591.53 576.17L554.92 608.37L562.86 615.65Z" fill="#DEEED2"/>
<path d="M621.18 603.53L584.56 635.55L608.88 657.85L645.47 625.95L621.18 603.53Z" fill="#DEEED2"/>
<path d="M558.35 658.47C556.63 659.97 554.06 659.93 552.39 658.37C550.46 656.56 550.52 653.48 552.52 651.75L571.62 635.28L562.24 627.04L506.58 673.91C504.78 675.43 502.04 675.21 500.51 673.29C499.06 671.47 499.48 668.78 501.27 667.28L555.92 621.47L541.23 608.56L548.38 602.36L596.57 558.24L576.2 535.93L575.78 536.3L554.64 511.6C554.4 511.94 554.18 512.27 553.98 512.57C542.1 530.85 522.22 551.12 522.22 551.12C522.22 551.12 496.18 570.37 468.53 610.63C445.68 653.4 459.39 734.28 459.39 734.28L492.52 759.77L529.19 727.32L503.9 701.99C502.24 700.32 501.97 697.62 503.47 695.81C505.2 693.73 508.31 693.64 510.16 695.55L535.58 721.76L603.08 662.93L578.24 641.1L558.35 658.47Z" fill="#DEEED2"/>
<path d="M613.12 545.11C615.07 543.68 617.81 544.04 619.33 545.92C620.87 547.81 620.63 550.58 618.8 552.19L598.25 570.26L607.32 578.37L661.5 532.94C648.19 518.93 636.51 506.2 632.84 501.89C624.45 492.04 617.7 499.52 617.7 499.52L581.67 531.12L602.38 552.96L613.12 545.11Z" fill="#DEEED2"/>
<path d="M615.02 597.85L606.38 589.87L569.04 621.31L578.14 629.66L615.02 597.85Z" fill="#DEEED2"/>
<path d="M514.6 216.79C519.93 219.45 560.56 266.24 568 274.04C571.33 270.35 572.55 224.91 572.55 224.91C542.68 209.14 519.94 213.71 514.6 216.79Z" fill="#DEEED2"/>
<path d="M929.62 170.98V16.51C929.62 16.51 804.72 38.84 775.01 46.09C775.73 70 792.05 169.87 760.35 199.26C760.35 199.26 758.78 295.07 758.08 310.64C757.85 317.61 757.85 317.61 757.85 317.61H788.07V326.93H755.99C755.99 326.93 754.22 356.25 749.68 366.51C753.03 368 760.33 363.15 762.67 361.77C765.01 360.4 770.85 360.11 782.25 360.4C793.65 360.69 815.27 360.4 815.27 360.4V369.35H774.66C774.66 369.35 767.65 368.25 762.1 372.07C756.55 375.89 751.71 376.57 746.17 375.92C745.44 381.15 735.21 418.84 727.03 431.41C724.69 436.09 723.23 439.21 727.03 447.58C730.83 455.95 746.92 482.82 752.79 490.06C763.14 491.78 793.49 493.52 799.49 491.2C801.62 490.04 808.78 482.3 810.52 471.08C812.26 459.86 812.26 451.74 812.26 451.74C812.26 451.74 815.54 427.95 815.28 405.26C815.02 382.57 823.46 352.67 823.46 352.67C823.46 352.67 826.87 338.9 818.53 326.93C810.19 314.96 810.57 293.95 822.7 279.26C834.83 264.57 849.23 239.94 872.34 219.1C894.19 199.4 929.64 169.46 929.64 169.46" fill="#DEEED2"/>
<path d="M930.7 182.11C930.7 182.11 873.4 231.66 859.38 248.95C869.23 248.8 891.21 248.95 891.21 248.95C891.21 248.95 899.55 248.05 902.58 251.46C905.61 254.87 903.73 258.19 901.44 258.84C899.15 259.49 895.72 257.58 894.19 256.25C889.42 256.06 861.18 257.59 852.41 253.77C848.59 260.64 833.06 281.05 828.24 286.97C841.73 286.78 871.49 284.49 882.56 277.05C884.85 278.19 889.05 280.48 879.13 286.59C869.21 292.7 849.56 294.6 838.49 294.79C827.42 294.98 821.32 294.98 820.75 306.05C820.18 317.12 828.25 325.18 828.25 325.18C828.25 325.18 839.12 338.14 831.23 365.85C823.34 393.56 828.5 435.36 821.12 459.98C830.97 460.8 844.92 461.35 844.92 461.35C844.92 461.35 850.66 461.62 850.66 465.73C850.66 469.84 847.1 470.11 844.64 469.83C842.18 469.56 820.02 469.83 820.02 469.83C820.02 469.83 817.28 495.1 803.33 500.25C789.38 505.4 756.55 501.57 756.55 501.57C756.55 501.57 758.47 533.3 748.07 547.53C752.24 551.31 805.89 609.62 814.14 615.29C823.43 610.91 853.86 584.86 857.21 572.22C860.56 559.58 861.08 538.95 860.31 523.73C859.54 508.51 866.76 486.33 866.76 486.33C866.76 486.33 868.57 480.35 872.69 481.66C876.81 482.97 874.5 490.98 874.5 490.98C874.5 490.98 869.86 510.31 869.86 515.21C873.47 515.47 930.73 520.63 930.73 520.63V182.11H930.7Z" fill="#DEEED2"/>
<path d="M929.62 527.97L866.94 522.04C866.94 522.04 868.49 556.34 864.88 571.56C861.27 586.78 832.38 613.34 821.55 620.57C829.03 629.86 834.7 637.33 847.6 631.66C860.5 625.99 866.94 623.15 893.51 623.92C920.08 624.69 929.62 625.21 929.62 625.21V527.97Z" fill="#DEEED2"/>
<path d="M929.62 656.04C929.62 656.04 899.97 645.63 873.65 649.68C865.84 651.7 860.35 652.57 860.93 658.93C861.51 665.29 873.94 684.96 873.94 684.96C873.94 684.96 904.59 671.66 913.85 666.74C923.1 661.82 925.42 662.4 926.57 664.72C927.73 667.03 928.31 668.77 923.1 671.66C917.89 674.55 880.88 691.61 880.88 691.61C880.88 691.61 893.6 709.25 899.39 711.85C908.64 706.36 920.21 701.44 931.2 702.31L929.62 656.04Z" fill="#DEEED2"/>
<path d="M929.62 757.54L845.31 666.74L703.76 797.89L753.78 851.83H856.33L929.62 786.7V757.54Z" fill="#DEEED2"/>
<path d="M739.23 851.83L693.82 804.27L641.31 844.72C641.31 844.72 573.19 839.4 484.5 839.04C395.8 838.69 136.04 837.63 136.04 837.63C136.04 837.63 103.45 833.44 83.9 851.83H739.23Z" fill="#DEEED2"/>
<path d="M33.04 0.830017H-41.38V851.83H32.02C32.02 851.83 28.57 669.82 29.39 645.44C30.22 621.06 39.72 370.23 40.13 347.92C40.54 325.61 41.37 113.62 41.37 113.62L39.31 0.830017H33.04Z" fill="#DEEED2"/>
<path d="M759.1 0.830017H74.02L74.85 68.99C74.85 68.99 113.69 69.4 147.58 72.71C181.47 76.02 190.14 78.08 372.79 53.7C423.62 46.26 478.58 40.89 516.18 37.17C553.78 33.45 693.87 27.3 774.03 0.830017H759.1Z" fill="#DEEED2"/>
<path d="M444.12 91.42C431.91 92.65 424.32 94.7 419.81 97.61C415.3 100.51 392.32 103.74 382.88 104.97C373.44 106.2 375.08 131.23 375.08 131.23C375.08 131.23 384.75 141.82 396.83 146.86C408.91 151.9 436.64 160.37 457.98 172.08C479.32 183.8 504.76 209.2 507.63 208.53C539.23 200.07 552.36 208.79 562.62 211.66C572.88 214.53 581.5 219.05 593.81 218.64C606.12 218.23 654.54 219.87 677.64 218.64C700.73 217.41 751.39 194.99 751.39 194.99C751.39 194.99 767.8 162.01 769.45 152.98C772.32 131.64 765.35 46.28 765.35 46.28C735.38 59.83 456.33 90.19 444.12 91.42Z" fill="#DEEED2"/>
<path d="M84.4132 417.984L84.372 421.474L123.758 421.938L123.799 418.449L84.4132 417.984Z" fill="#0D7F3F"/>
<path d="M132.186 419.227L132.139 423.217L191.543 423.918L191.59 419.928L132.186 419.227Z" fill="#0D7F3F"/>
<path d="M324.2 422.25L201.04 420.7L200.99 425.59L327.61 427.08L324.2 422.25Z" fill="#0D7F3F"/>
<path d="M438.56 422.78L335.2 423.12L338.77 427.3L438.56 426.77V422.78Z" fill="#0D7F3F"/>
<path d="M557.48 423.97L445.28 422.78L445.24 426.33L557.48 427.05V423.97Z" fill="#0D7F3F"/>
<path d="M275.75 753.51C267.89 737.82 260.32 733.51 248.83 731.79C237.34 730.08 209.2 720.19 201.04 715.51C167.46 696.91 105.79 686.05 105.79 686.05L103.66 764.71C103.66 764.71 111.33 765.14 132.22 766.42C153.11 767.7 149.06 779.42 149.06 779.42L146.5 819.92C146.5 819.92 258.41 820.77 286.55 820.99C289.11 814.17 309.23 795.93 309.23 795.93C309.23 795.93 283.62 769.2 275.75 753.51Z" fill="#DEEED2"/>
<path d="M76.27 683.84L79.14 778.48L94.56 780.27L97.78 686.05L76.27 683.84Z" fill="#DEEED2"/>
<path d="M77.71 788.87C77.71 788.87 77.71 794.61 77.71 802.67C89.18 810.02 93.48 816.47 93.48 816.47C93.48 816.47 92.05 806.43 91.69 804.27C91.33 802.11 93.48 788.87 93.48 788.87H77.71Z" fill="#DEEED2"/>
<path d="M103.66 772.03L100.29 806.8C100.29 806.8 104.87 820.06 103.66 819.35C102.45 818.64 139.37 819.38 139.37 819.38V777.05L103.66 772.03Z" fill="#DEEED2"/>
<path d="M477.34 821.43L475.93 819.55C446.34 769.99 445.3 683.83 445.3 683.83C445.3 683.83 386.91 683.62 368.72 683.4C350.54 683.19 352.04 668.21 352.04 668.21C352.04 668.21 352.04 668.21 352.63 652.83C353.22 637.45 334.68 638.5 334.68 638.5L172.03 634.07L136.85 620.75L76.28 618.5C76.28 618.5 76.83 658.32 76.98 675.38C97.19 672.69 131.17 683.83 131.17 683.83L133.12 655.47L141.2 656.52L139.25 684.96C139.25 684.96 139.02 685.62 141.17 686.04C172.72 688.96 209.28 708.57 214.3 711.08C219.32 713.59 253.38 721.83 270.22 728.36C282.41 759.62 317.68 789.42 317.68 789.42L406 706.8C407.8 705.11 409.56 704.52 411.31 706.27L412.23 707.19C414.07 709.03 413.08 711.12 411.16 712.88L293.36 820.97L477.34 821.43Z" fill="#DEEED2"/>
<path d="M614.9 822.73L599.47 805.05L583.4 821.43L614.9 822.73Z" fill="#DEEED2"/>
<path d="M574.18 821.43L593.93 799.02L582.65 786.23L543.25 821.43H574.18Z" fill="#DEEED2"/>
<path d="M462.32 744.55C461.73 773.58 487.69 821.43 487.69 821.43C487.69 821.43 534.98 821.15 535.44 821.43C535.44 821.43 495.45 777.39 462.32 744.55Z" fill="#DEEED2"/>
<path d="M577.11 780.07L566.32 769.47L528.29 803.27L538.7 813.01L577.11 780.07Z" fill="#DEEED2"/>
<path d="M535.44 733.05L495.75 766.15L523.6 796.38L561.99 762.87L535.44 733.05Z" fill="#DEEED2"/>
<path d="M830.04 647.37L727.39 741.81L726.92 742.21C723.64 738.37 714.5 727.81 714.5 727.81C714.5 727.81 706.79 721.82 701.03 727.23C696.76 731.24 674.97 749 662.7 758.79C660.26 760.74 653.3 766.13 656.85 769.45C656.85 769.45 659.4 772.77 663.19 770.15L708.4 733.04L720.91 747.33L640.71 815.73V813.88C640.71 813.88 628.24 797.13 628.24 796.85C628.24 796.62 634.61 791.65 636.73 790C637.17 789.66 637.48 789.18 637.63 788.64L638.66 784.78C638.87 784 638.7 783.17 638.2 782.54L593.39 725.25L648.51 675.5C650.57 673.64 650.65 670.44 648.69 668.48C646.89 666.68 644 666.58 642.08 668.25L587.48 715.79C586.7 716.47 586.28 717.46 586.32 718.48L586.77 729.32C586.8 730.06 587.07 730.77 587.54 731.34L629.49 782.12C630.43 783.26 630.21 784.96 629.01 785.83L620.99 791.61C620.26 792.13 619.86 793 619.94 793.89L620.54 801.24L632.16 816.23L631.89 820.06L622.01 819.37L541.73 727.32L740.03 554.2L804.79 621.23L762.41 660.94C760.76 662.49 761.85 665.26 764.12 665.26C765.73 666.87 768.33 666.9 769.97 665.33L810.22 626.85L830.04 647.37Z" fill="#7FBB42"/>
<path d="M736.64 546.48C736.64 546.48 755.67 517.19 740.03 490.07C724.39 462.94 714.78 449.86 714.78 449.86L713.05 441.32L698.16 436.51C698.16 436.51 668.1 428.77 582.36 430.9C570.05 433.04 568 435.17 568 435.17C568 435.17 569.11 481.71 558.23 503.43C571.92 518.48 577.6 525.95 577.6 525.95L616.29 491.56C616.29 491.56 626.97 480.74 635.73 492.32L709.35 567.93L736.64 546.48Z" fill="#7FBB42"/>
<path d="M722.65 218.35C713.23 222.29 691.31 228.43 674.22 228.87C657.13 229.31 582.36 226.9 582.36 226.9C582.36 226.9 582.39 247.72 582.36 261.45C582.33 275.18 568 282.65 568 282.65C568 282.65 568.93 405.81 568.93 417.84C587.59 425.2 656.4 422.61 656.4 422.61L659.13 241.87C659.17 239.28 661.31 237.22 663.9 237.28C666.46 237.34 668.49 239.46 668.44 242.02C667.94 269.01 665.4 405.66 664.56 423.3C696.05 425.4 715.18 433.1 715.18 433.1L743.17 350.06L747.77 308.81L749.67 270.39H676.16C673.67 270.39 671.66 268.37 671.66 265.89C671.66 263.38 673.71 261.36 676.21 261.39L749.67 262.22V206.26C749.67 206.25 732.07 214.41 722.65 218.35Z" fill="#7FBB42"/>
<path d="M191 341.14C191 341.14 212.77 341.64 217.83 339.44C220.69 338.12 221.57 337.24 221.57 333.94C221.57 330.64 222.67 226.18 222.67 226.18C222.67 226.18 219.59 210.57 241.14 210.35C262.69 210.13 294.36 210.35 294.36 210.35C294.36 210.35 306.67 207.93 307.55 221.79C307.55 228.61 307.55 230.59 307.55 230.59H337.46V177.59H194.3L191 341.14Z" fill="#7FBB42"/>
<path d="M182.39 343.57L185.01 171.01H345.12V219.1H355.33V237.92L440.26 237.78C440.06 226.78 439.69 218.78 439.08 213.71C433.37 193.77 367.64 163.29 349.12 155.99C330.6 148.69 270.69 152.86 239.73 152.86C208.77 152.86 196.24 156.51 196.24 156.51C196.24 156.51 175.31 168.5 149.25 176.28C110.68 185.92 112.37 202.9 112.37 202.9L110.51 342.5L182.39 343.57Z" fill="#7FBB42"/>
<path d="M110.55 353.72L109.65 408.77L177.34 410.61C177.34 410.61 187.01 400.11 197.88 388.41L195.65 385.09C195.65 385.09 187.35 372.9 184.38 367.39C181.41 361.88 174.15 356.4 174.15 356.4L167.55 350.27H110.42L110.55 353.72Z" fill="#7FBB42"/>
<path d="M262.22 346.23C262.22 346.23 238.28 346.46 235.02 346.23C231.76 346 226.19 346.23 222.24 347.62C218.29 349.01 207.83 350.27 207.83 350.27C207.83 350.27 190.16 350.18 178.62 350.27C185.67 353.39 204.1 381.71 204.1 381.71C212.86 372.3 221.37 363.24 225.33 359.22C239.44 347.36 251.82 347.72 262.69 352.28L262.22 346.23Z" fill="#7FBB42"/>
<path d="M335.05 411.74L335.94 336.64C335.94 336.64 312.16 336.26 308.3 336.14C308.18 343.99 300.67 346.64 300.67 346.64L271.59 346.15L272.68 357.63C294.84 371.01 329.53 416.02 329.53 416.02H335.28L335.05 411.74Z" fill="#7FBB42"/>
<path d="M435.62 349.08L344.6 346.16L343.49 416.03H439.08V410.61C439.08 410.61 440.45 381.54 440.78 348.88L435.62 349.08Z" fill="#7FBB42"/>
<path d="M439.83 341.14C439.99 325.09 440.15 308.68 440.27 294.81H352.86C352.86 294.81 341.58 294.46 341.02 285.03C332.51 285.77 307.55 286.63 307.55 286.63V328.49L341.21 329.5C341.21 329.5 348.98 332.36 348.98 340.73L439.83 341.14Z" fill="#7FBB42"/>
<path d="M101.82 130.46C84.62 148.7 84.62 183.54 84.62 183.54L82.55 408.59L101.82 408.6C101.82 408.6 101.82 230.55 101.82 206.26C101.82 181.97 138.92 169.56 138.92 169.56L203.11 146.87L198.78 126.63C141.46 117.04 114.33 120.03 101.82 130.46Z" fill="#7FBB42"/>
<path d="M307.55 239.15V277.57H335.94V236.71L307.55 239.15Z" fill="#7FBB42"/>
<path d="M345.12 236.71L346.09 285.03L440.33 286.63C440.41 276.68 440.45 268.66 440.45 263.98C440.45 257.84 440.43 252.22 440.38 247.09H357.27C357.28 247.09 345.61 247.41 345.12 236.71Z" fill="#7FBB42"/>
<path d="M188.51 412.04L318.29 414.65C318.29 414.65 287.72 379.54 277.58 371.7C267.44 363.87 247.42 351.22 234.07 363.93C220.72 376.64 188.51 412.04 188.51 412.04Z" fill="#7FBB42"/>
<path d="M332.62 438.46L260.13 436.94C259.92 448.74 259.47 474.07 259.02 500.14H332.62V438.46Z" fill="#7FBB42"/>
<path d="M420.9 541.99C438.8 541.53 437.72 529.88 437.72 529.88L436.86 437.12L341.02 438.63C340.85 456.16 340.34 504.23 339.61 540.82C359.05 541.28 406.76 542.35 420.9 541.99Z" fill="#7FBB42"/>
<path d="M269.34 594.4C269.34 594.4 286.95 594.76 310.02 596.66C333.09 598.56 330.12 582.42 330.12 582.42L331.26 545.01V540.61C331.26 540.61 331.31 540.61 331.39 540.61L332.36 508.82H258.86C258.33 539.62 257.84 569.49 257.79 577.39C257.67 595.22 269.34 594.4 269.34 594.4Z" fill="#7FBB42"/>
<path d="M556.96 436.9L545.01 436.75V490.89C545.01 493.29 543.06 495.24 540.66 495.24C538.26 495.24 536.31 493.29 536.31 490.89V436.64L446.19 435.49C446.22 443.26 446.29 459.8 446.41 477.2L501.84 477.85C504.02 477.88 505.95 479.49 506.13 481.67C506.34 484.16 504.36 486.24 501.92 486.21L446.47 485.56C446.62 503.75 446.84 521.5 447.14 529.89C447.88 550.68 420.89 549.76 420.89 549.76L339.45 548.31C339.12 563.77 338.74 576.37 338.34 582.43C336.74 606.42 316.87 604.76 316.87 604.76C316.87 604.76 296.08 605.28 272.09 604.76C248.1 604.24 249.07 577.41 249.07 577.41L252.03 436.78L82.13 433.22L76.27 612.78L86.1 613.02V599.69C86.1 599.69 84.19 587.97 98.67 587.87C113.15 587.77 149.96 589.18 149.96 589.18C149.96 589.18 166.05 588.3 166.45 602.72C166.72 612.46 166.81 620.14 166.84 624.09L177.06 628.32C177.06 628.32 307.49 630.73 334.67 631.86C361.85 632.99 360.81 652.2 360.81 652.2L359.66 676.01C359.66 676.01 429.67 677.35 446.28 677.74C444.94 657.77 447.89 629.39 457.8 608.58C471.2 584.02 511.12 548.47 536.84 521.92C562.58 495.37 556.96 436.9 556.96 436.9Z" fill="#7FBB42"/>
<path d="M153.58 598.03C152.37 597.98 148.53 597.87 143.42 597.74V614.44H143.51L158.46 620.63L158.3 605.68C158.31 605.67 158.51 598.23 153.58 598.03Z" fill="#7FBB42"/>
<path d="M134.37 597.5C118.99 597.11 100.18 596.66 100.18 596.66C100.18 596.66 94.05 596.32 93.94 601.75C93.88 605.2 93.97 610.09 94.05 613.22L134.36 614.21V597.5H134.37Z" fill="#7FBB42"/>
<path d="M558.23 416.03L558.1 337.05C558.1 337.05 558.92 290.46 556.46 283.76C519.53 217.17 452.64 180.07 435.62 172.08C418.6 164.1 389.55 155.85 389.55 155.85L364.4 136.73L346.75 111.94L209.83 126.61L214.21 144.53C214.21 144.53 285.29 141.4 327.69 143.49C370.09 145.57 439.06 194.05 444.12 203.95C449.18 213.85 450.62 248.05 450.62 248.05L449.82 286.6C450.45 286.28 451.16 286.08 451.92 286.08H519.44C522.02 286.08 524.11 288.17 524.11 290.75C524.11 293.33 522.02 295.42 519.44 295.42H451.92C451.09 295.42 450.32 295.19 449.64 294.8L448.68 340.73H511.72C514.14 340.73 516.1 342.69 516.1 345.11C516.1 347.53 514.14 349.49 511.72 349.49H448.5L447.47 398.92H536.18C538.91 398.92 541.12 401.13 541.12 403.86C541.12 406.59 538.91 408.8 536.18 408.8H447.27L447.12 416.03H558.23Z" fill="#7FBB42"/>
<path d="M52.11 851.83L50.56 682.82H54.78L56.56 851.83H52.11Z" fill="#999999"/>
<path d="M50.56 673.03H54.56L53.89 556.05L50.56 673.03Z" fill="#999999"/>
<path d="M54.56 537.59H57.67C57.67 537.59 60.12 451.74 63.45 429.5C63.23 400.37 63.01 160.62 63.01 160.62L59.01 423.89C59.01 423.89 56.34 523.8 54.56 537.59Z" fill="#999999"/>
<path d="M78.55 90.57V97.61L106.24 102.87L185.14 105.59L359.05 89.88L410.41 78.38L420.51 72.21L455.86 69.4L463.6 63.31H443.26L239.07 91.45L174.25 96.73C174.25 96.73 127.96 91.26 78.55 90.57Z" fill="#999999"/>
<path d="M874.42 0.830017V5.96002L703.3 37.76L811.01 12.05L874.42 0.830017Z" fill="#999999"/>
<path d="M616.54 47.15V50.88C616.54 50.88 645.99 47.15 659.73 45.19C673.47 43.23 703.3 37.76 703.3 37.76L639.7 46.29L616.54 47.15Z" fill="#999999"/>
<path d="M606.52 48.92V51.67L455.85 69.41L463.59 63.32L541.35 54.41L606.52 48.92Z" fill="#999999"/>
</svg>
