<svg width="24" height="24" viewBox="0 0 24 24" fill="none" xmlns="http://www.w3.org/2000/svg">
<path d="M21.4027 3.48601C20.6795 2.76295 19.711 2.33818 18.6893 2.29598C17.6676 2.25379 16.6673 2.59726 15.887 3.25824C15.1068 3.91921 14.6035 4.84938 14.4771 5.86414C14.3507 6.8789 14.6105 7.90409 15.2048 8.73626L17.8689 12.4657C17.943 12.5696 18.0409 12.6542 18.1543 12.7126C18.2678 12.771 18.3936 12.8015 18.5212 12.8015C18.6488 12.8015 18.7745 12.771 18.888 12.7126C19.0014 12.6542 19.0993 12.5696 19.1735 12.4657L21.8375 8.73626C22.4007 7.95217 22.6662 6.99316 22.5865 6.03109C22.5068 5.06902 22.0871 4.16677 21.4027 3.48601ZM18.5212 7.70365C18.2569 7.70365 17.9987 7.6253 17.779 7.4785C17.5593 7.33171 17.388 7.12306 17.2869 6.87895C17.1858 6.63484 17.1593 6.36623 17.2109 6.10708C17.2624 5.84794 17.3897 5.60989 17.5765 5.42306C17.7633 5.23623 18.0014 5.10899 18.2605 5.05744C18.5197 5.0059 18.7883 5.03235 19.0324 5.13347C19.2765 5.23458 19.4852 5.40581 19.632 5.6255C19.7787 5.8452 19.8571 6.10349 19.8571 6.36771C19.8571 6.72202 19.7163 7.06181 19.4658 7.31234C19.2153 7.56287 18.8755 7.70363 18.5212 7.70365Z" fill="#4F4F4F"/>
<path d="M18.5212 14.761C18.4159 14.761 18.3117 14.7817 18.2144 14.822C18.1172 14.8623 18.0288 14.9213 17.9544 14.9958C17.88 15.0702 17.821 15.1585 17.7807 15.2558C17.7404 15.353 17.7197 15.4572 17.7197 15.5625V17.2716C17.7197 18.023 17.4212 18.7436 16.8899 19.275C16.3585 19.8063 15.6379 20.1048 14.8865 20.1048C14.1351 20.1048 13.4144 19.8063 12.8831 19.275C12.3518 18.7436 12.0533 18.023 12.0533 17.2716V10.0022C12.0539 9.41924 11.9396 8.84189 11.7169 8.30314C11.4942 7.76439 11.1676 7.27482 10.7556 6.8624C10.3436 6.44998 9.85432 6.12281 9.3158 5.89958C8.77729 5.67636 8.20005 5.56146 7.6171 5.56146C7.03416 5.56146 6.45692 5.67636 5.9184 5.89958C5.37989 6.12281 4.89065 6.44998 4.47865 6.8624C4.06665 7.27482 3.73998 7.76439 3.51731 8.30314C3.29464 8.84189 3.18034 9.41924 3.18094 10.0022V13.7813C3.18145 13.9935 3.26612 14.1968 3.41637 14.3467C3.56662 14.4966 3.77019 14.5808 3.98242 14.5808C4.19465 14.5808 4.39821 14.4966 4.54846 14.3467C4.69871 14.1968 4.78338 13.9935 4.78389 13.7813V10.0022C4.78341 9.62982 4.85634 9.26101 4.99851 8.91685C5.14068 8.57268 5.3493 8.25992 5.61243 7.99645C5.87557 7.73297 6.18806 7.52395 6.53204 7.38134C6.87602 7.23873 7.24473 7.16533 7.6171 7.16533C7.98947 7.16533 8.35819 7.23873 8.70217 7.38134C9.04615 7.52395 9.35864 7.73297 9.62178 7.99645C9.88491 8.25992 10.0935 8.57268 10.2357 8.91685C10.3779 9.26101 10.4508 9.62982 10.4503 10.0022V17.2716C10.4503 18.4481 10.9177 19.5765 11.7496 20.4084C12.5816 21.2403 13.7099 21.7077 14.8865 21.7077C16.063 21.7077 17.1914 21.2403 18.0233 20.4084C18.8553 19.5765 19.3226 18.4481 19.3226 17.2716V15.5625C19.3227 15.4572 19.3019 15.353 19.2617 15.2558C19.2214 15.1585 19.1623 15.0702 19.0879 14.9957C19.0135 14.9213 18.9251 14.8623 18.8279 14.822C18.7306 14.7817 18.6264 14.761 18.5212 14.761Z" fill="#4F4F4F"/>
<path d="M3.98241 16.5423C3.47159 16.5423 2.97225 16.6937 2.54753 16.9775C2.1228 17.2613 1.79177 17.6647 1.59629 18.1366C1.40081 18.6086 1.34966 19.1279 1.44932 19.6289C1.54897 20.1299 1.79495 20.5901 2.15615 20.9513C2.51735 21.3125 2.97755 21.5584 3.47855 21.6581C3.97955 21.7577 4.49885 21.7066 4.97078 21.5111C5.44271 21.3156 5.84608 20.9846 6.12987 20.5599C6.41366 20.1351 6.56514 19.6358 6.56514 19.125C6.5644 18.4402 6.29205 17.7837 5.80785 17.2995C5.32366 16.8154 4.66716 16.543 3.98241 16.5423Z" fill="#4F4F4F"/>
</svg>
