<svg width="32" height="32" viewBox="0 0 32 32" fill="none" xmlns="http://www.w3.org/2000/svg">
<path fill-rule="evenodd" clip-rule="evenodd" d="M29.2 14.3H12C12 14.7971 11.597 15.2 11.1 15.2H4.89999C4.40293 15.2 3.99999 14.7971 3.99999 14.3H2.79999C2.66738 14.3 2.5402 14.2474 2.44643 14.1536C2.35267 14.0598 2.29999 13.9327 2.29999 13.8V1.80005C2.29999 1.66744 2.35267 1.54026 2.44643 1.4465C2.5402 1.35273 2.66738 1.30005 2.79999 1.30005H29.2C29.3326 1.30005 29.4598 1.35273 29.5535 1.4465C29.6473 1.54026 29.7 1.66744 29.7 1.80005V13.8C29.7 13.9327 29.6473 14.0598 29.5535 14.1536C29.4598 14.2474 29.3326 14.3 29.2 14.3ZM4.99999 14.24H11V11.8H4.99999V14.24ZM9.7068 8.59323C9.51932 8.40576 9.26512 8.30031 8.99999 8.30005H6.99999C6.73485 8.30031 6.48065 8.40576 6.29317 8.59323C6.10569 8.78071 6.00025 9.03491 5.99999 9.30005V10.8H9.99999V9.30005C9.99972 9.03491 9.89428 8.78071 9.7068 8.59323ZM7.16852 5.74448C7.05864 5.90893 6.99999 6.10227 6.99999 6.30005C7.00025 6.56518 7.10569 6.81938 7.29317 7.00686C7.48065 7.19434 7.73485 7.29978 7.99999 7.30005C8.19777 7.30005 8.39111 7.2414 8.55556 7.13152C8.72001 7.02164 8.84818 6.86546 8.92387 6.68273C8.99956 6.50001 9.01936 6.29894 8.98077 6.10496C8.94219 5.91098 8.84695 5.73279 8.7071 5.59294C8.56724 5.45309 8.38906 5.35785 8.19508 5.31926C8.0011 5.28068 7.80003 5.30048 7.6173 5.37617C7.43458 5.45186 7.2784 5.58003 7.16852 5.74448ZM11 10.8H11.5C11.6326 10.8 11.7598 10.8527 11.8535 10.9465C11.9473 11.0403 12 11.1674 12 11.3V13.3H28.7V2.30005H3.29999V13.3H3.99999V11.3C3.99999 11.1674 4.05267 11.0403 4.14643 10.9465C4.2402 10.8527 4.36738 10.8 4.49999 10.8H4.99999V9.30005C5.00133 8.88596 5.13139 8.48253 5.37216 8.14563C5.61293 7.80873 5.95249 7.55503 6.34383 7.41965C6.14021 7.11888 6.02234 6.76835 6.00286 6.40566C5.98339 6.04298 6.06305 5.68184 6.23329 5.361C6.40353 5.04016 6.65793 4.77173 6.96918 4.58453C7.28043 4.39734 7.63678 4.29843 7.99999 4.29843C8.3632 4.29843 8.71955 4.39734 9.0308 4.58453C9.34205 4.77173 9.59644 5.04016 9.76669 5.361C9.93693 5.68184 10.0166 6.04298 9.99711 6.40566C9.97764 6.76835 9.85977 7.11888 9.65615 7.41965C10.0475 7.55503 10.387 7.80873 10.6278 8.14563C10.8686 8.48253 10.9986 8.88596 11 9.30005V10.8ZM18.7 12.3H25.7C26.2303 12.2994 26.7386 12.0885 27.1136 11.7136C27.4885 11.3387 27.6994 10.8303 27.7 10.3V5.30005C27.6994 4.7698 27.4885 4.26145 27.1136 3.8865C26.7386 3.51156 26.2303 3.30065 25.7 3.30005H18.7C18.1698 3.30065 17.6614 3.51156 17.2865 3.8865C16.9115 4.26145 16.7006 4.7698 16.7 5.30005V10.3C16.7006 10.8303 16.9115 11.3387 17.2865 11.7136C17.6614 12.0885 18.1698 12.2994 18.7 12.3ZM17.7 5.30005C17.7003 5.03491 17.8057 4.78071 17.9932 4.59323C18.1807 4.40576 18.4349 4.30031 18.7 4.30005H25.7C25.9651 4.30031 26.2193 4.40576 26.4068 4.59323C26.5943 4.78071 26.6997 5.03491 26.7 5.30005V10.3C26.6997 10.5652 26.5943 10.8194 26.4068 11.0069C26.2193 11.1943 25.9651 11.2998 25.7 11.3H18.7C18.4349 11.2998 18.1807 11.1943 17.9932 11.0069C17.8057 10.8194 17.7003 10.5652 17.7 10.3V5.30005ZM9.25 18.65C9.25 18.205 9.11804 17.77 8.87081 17.4C8.62358 17.03 8.27217 16.7416 7.86104 16.5713C7.44991 16.401 6.99751 16.3564 6.56105 16.4433C6.12459 16.5301 5.72368 16.7444 5.40901 17.059C5.09434 17.3737 4.88005 17.7746 4.79323 18.2111C4.70642 18.6475 4.75097 19.0999 4.92127 19.5111C5.09157 19.9222 5.37996 20.2736 5.74997 20.5208C6.11998 20.7681 6.55499 20.9 7 20.9C7.59654 20.8994 8.16846 20.6621 8.59027 20.2403C9.01209 19.8185 9.24935 19.2466 9.25 18.65ZM5.75 18.65C5.75 18.4028 5.82331 18.1611 5.96066 17.9556C6.09802 17.75 6.29324 17.5898 6.52165 17.4952C6.75005 17.4006 7.00139 17.3758 7.24386 17.424C7.48634 17.4723 7.70907 17.5913 7.88388 17.7661C8.0587 17.941 8.17775 18.1637 8.22598 18.4062C8.27421 18.6486 8.24946 18.9 8.15485 19.1284C8.06024 19.3568 7.90003 19.552 7.69446 19.6894C7.4889 19.8267 7.24723 19.9 7 19.9C6.6686 19.8996 6.35088 19.7678 6.11655 19.5335C5.88221 19.2991 5.75039 18.9814 5.75 18.65ZM15.25 18.65C15.25 18.205 15.118 17.77 14.8708 17.4C14.6236 17.03 14.2722 16.7416 13.861 16.5713C13.4499 16.401 12.9975 16.3564 12.561 16.4433C12.1246 16.5301 11.7237 16.7444 11.409 17.059C11.0943 17.3737 10.8801 17.7746 10.7932 18.2111C10.7064 18.6475 10.751 19.0999 10.9213 19.5111C11.0916 19.9222 11.38 20.2736 11.75 20.5208C12.12 20.7681 12.555 20.9 13 20.9C13.5965 20.8994 14.1685 20.6621 14.5903 20.2403C15.0121 19.8185 15.2494 19.2466 15.25 18.65ZM11.75 18.65C11.75 18.4028 11.8233 18.1611 11.9607 17.9556C12.098 17.75 12.2932 17.5898 12.5216 17.4952C12.7501 17.4006 13.0014 17.3758 13.2439 17.424C13.4863 17.4723 13.7091 17.5913 13.8839 17.7661C14.0587 17.941 14.1778 18.1637 14.226 18.4062C14.2742 18.6486 14.2495 18.9 14.1549 19.1284C14.0602 19.3568 13.9 19.552 13.6945 19.6894C13.4889 19.8267 13.2472 19.9 13 19.9C12.6686 19.8996 12.3509 19.7678 12.1165 19.5335C11.8822 19.2991 11.7504 18.9814 11.75 18.65ZM20.8708 17.4C21.118 17.77 21.25 18.205 21.25 18.65C21.2494 19.2466 21.0121 19.8185 20.5903 20.2403C20.1685 20.6621 19.5965 20.8994 19 20.9C18.555 20.9 18.12 20.7681 17.75 20.5208C17.38 20.2736 17.0916 19.9222 16.9213 19.5111C16.751 19.0999 16.7064 18.6475 16.7932 18.2111C16.8801 17.7746 17.0943 17.3737 17.409 17.059C17.7237 16.7444 18.1246 16.5301 18.561 16.4433C18.9975 16.3564 19.4499 16.401 19.861 16.5713C20.2722 16.7416 20.6236 17.03 20.8708 17.4ZM17.9607 17.9556C17.8233 18.1611 17.75 18.4028 17.75 18.65C17.7504 18.9814 17.8822 19.2991 18.1165 19.5335C18.3509 19.7678 18.6686 19.8996 19 19.9C19.2472 19.9 19.4889 19.8267 19.6945 19.6894C19.9 19.552 20.0602 19.3568 20.1549 19.1284C20.2495 18.9 20.2742 18.6486 20.226 18.4062C20.1777 18.1637 20.0587 17.941 19.8839 17.7661C19.7091 17.5913 19.4863 17.4723 19.2439 17.424C19.0014 17.3758 18.7501 17.4006 18.5216 17.4952C18.2932 17.5898 18.098 17.75 17.9607 17.9556ZM27.25 18.65C27.25 18.205 27.118 17.77 26.8708 17.4C26.6236 17.03 26.2722 16.7416 25.861 16.5713C25.4499 16.401 24.9975 16.3564 24.561 16.4433C24.1246 16.5301 23.7237 16.7444 23.409 17.059C23.0943 17.3737 22.8801 17.7746 22.7932 18.2111C22.7064 18.6475 22.751 19.0999 22.9213 19.5111C23.0916 19.9222 23.38 20.2736 23.75 20.5208C24.12 20.7681 24.555 20.9 25 20.9C25.5965 20.8994 26.1685 20.6621 26.5903 20.2403C27.0121 19.8185 27.2494 19.2466 27.25 18.65ZM23.75 18.65C23.75 18.4028 23.8233 18.1611 23.9607 17.9556C24.098 17.75 24.2932 17.5898 24.5216 17.4952C24.7501 17.4006 25.0014 17.3758 25.2439 17.424C25.4863 17.4723 25.7091 17.5913 25.8839 17.7661C26.0587 17.941 26.1777 18.1637 26.226 18.4062C26.2742 18.6486 26.2495 18.9 26.1549 19.1284C26.0602 19.3568 25.9 19.552 25.6945 19.6894C25.4889 19.8267 25.2472 19.9 25 19.9C24.6686 19.8996 24.3509 19.7678 24.1165 19.5335C23.8822 19.2991 23.7504 18.9814 23.75 18.65ZM30.25 22.65C30.2479 23.1523 30.0762 23.6392 29.7625 24.0316C30.2654 24.1919 30.7045 24.5075 31.0167 24.933C31.3289 25.3586 31.4981 25.8722 31.5 26.4V29.4C31.5 29.5326 31.4473 29.6598 31.3536 29.7536C31.2598 29.8473 31.1326 29.9 31 29.9H1C0.867392 29.9 0.740215 29.8473 0.646447 29.7536C0.552678 29.6598 0.5 29.5326 0.5 29.4V26.4C0.501874 25.8722 0.671073 25.3586 0.983268 24.933C1.29546 24.5075 1.73457 24.1919 2.23745 24.0316C1.92384 23.6392 1.75206 23.1523 1.75 22.65C1.75 22.0533 1.98705 21.481 2.40901 21.059C2.83097 20.6371 3.40326 20.4 4 20.4C4.59674 20.4 5.16903 20.6371 5.59099 21.059C6.01295 21.481 6.25 22.0533 6.25 22.65C6.24794 23.1523 6.07616 23.6392 5.76255 24.0316C6.25692 24.1903 6.68949 24.4993 7 24.9155C7.31051 24.4993 7.74308 24.1903 8.23746 24.0316C7.92384 23.6392 7.75206 23.1523 7.75 22.65C7.75 22.0533 7.98705 21.481 8.40901 21.059C8.83097 20.6371 9.40326 20.4 10 20.4C10.5967 20.4 11.169 20.6371 11.591 21.059C12.0129 21.481 12.25 22.0533 12.25 22.65C12.2479 23.1523 12.0762 23.6392 11.7625 24.0316C12.2569 24.1903 12.6895 24.4993 13 24.9155C13.3105 24.4993 13.7431 24.1903 14.2375 24.0316C13.9238 23.6392 13.7521 23.1523 13.75 22.65C13.75 22.0533 13.9871 21.481 14.409 21.059C14.831 20.6371 15.4033 20.4 16 20.4C16.5967 20.4 17.169 20.6371 17.591 21.059C18.0129 21.481 18.25 22.0533 18.25 22.65C18.2479 23.1523 18.0762 23.6392 17.7625 24.0316C18.2569 24.1903 18.6895 24.4993 19 24.9155C19.3105 24.4993 19.7431 24.1903 20.2375 24.0316C19.9238 23.6392 19.7521 23.1523 19.75 22.65C19.75 22.0533 19.9871 21.481 20.409 21.059C20.831 20.6371 21.4033 20.4 22 20.4C22.5967 20.4 23.169 20.6371 23.591 21.059C24.0129 21.481 24.25 22.0533 24.25 22.65C24.2479 23.1523 24.0762 23.6392 23.7625 24.0316C24.2569 24.1903 24.6895 24.4993 25 24.9155C25.3105 24.4993 25.7431 24.1903 26.2375 24.0316C25.9238 23.6392 25.7521 23.1523 25.75 22.65C25.75 22.0533 25.9871 21.481 26.409 21.059C26.831 20.6371 27.4033 20.4 28 20.4C28.5967 20.4 29.169 20.6371 29.591 21.059C30.0129 21.481 30.25 22.0533 30.25 22.65ZM4.69446 21.6107C4.4889 21.4733 4.24723 21.4 4 21.4C3.6686 21.4004 3.35088 21.5322 3.11655 21.7666C2.88221 22.0009 2.75039 22.3186 2.75 22.65C2.75 22.8973 2.82331 23.1389 2.96066 23.3445C3.09801 23.55 3.29324 23.7103 3.52165 23.8049C3.75005 23.8995 4.00139 23.9242 4.24386 23.876C4.48634 23.8278 4.70907 23.7087 4.88388 23.5339C5.0587 23.3591 5.17775 23.1364 5.22598 22.8939C5.27421 22.6514 5.24946 22.4001 5.15485 22.1717C5.06024 21.9433 4.90002 21.748 4.69446 21.6107ZM1.5 26.4V28.9H6.5V26.4C6.49957 26.0023 6.34139 25.6211 6.06018 25.3398C5.77897 25.0586 5.39769 24.9005 5 24.9H3C2.60231 24.9005 2.22103 25.0586 1.93982 25.3398C1.65861 25.6211 1.50043 26.0023 1.5 26.4ZM10.6945 21.6107C10.4889 21.4733 10.2472 21.4 10 21.4C9.6686 21.4004 9.35088 21.5322 9.11655 21.7666C8.88221 22.0009 8.75039 22.3186 8.75 22.65C8.75 22.8973 8.82331 23.1389 8.96066 23.3445C9.09801 23.55 9.29324 23.7103 9.52165 23.8049C9.75005 23.8995 10.0014 23.9242 10.2439 23.876C10.4863 23.8278 10.7091 23.7087 10.8839 23.5339C11.0587 23.3591 11.1778 23.1364 11.226 22.8939C11.2742 22.6514 11.2495 22.4001 11.1548 22.1717C11.0602 21.9433 10.9 21.748 10.6945 21.6107ZM7.5 26.4V28.9H12.5V26.4C12.4996 26.0023 12.3414 25.6211 12.0602 25.3398C11.779 25.0586 11.3977 24.9005 11 24.9H9C8.60231 24.9005 8.22103 25.0586 7.93982 25.3398C7.65861 25.6211 7.50043 26.0023 7.5 26.4ZM16.6945 21.6107C16.4889 21.4733 16.2472 21.4 16 21.4C15.6686 21.4004 15.3509 21.5322 15.1165 21.7666C14.8822 22.0009 14.7504 22.3186 14.75 22.65C14.75 22.8973 14.8233 23.1389 14.9607 23.3445C15.098 23.55 15.2932 23.7103 15.5216 23.8049C15.7501 23.8995 16.0014 23.9242 16.2439 23.876C16.4863 23.8278 16.7091 23.7087 16.8839 23.5339C17.0587 23.3591 17.1777 23.1364 17.226 22.8939C17.2742 22.6514 17.2495 22.4001 17.1549 22.1717C17.0602 21.9433 16.9 21.748 16.6945 21.6107ZM13.5 26.4V28.9H18.5V26.4C18.4996 26.0023 18.3414 25.6211 18.0602 25.3398C17.779 25.0586 17.3977 24.9005 17 24.9H15C14.6023 24.9005 14.221 25.0586 13.9398 25.3398C13.6586 25.6211 13.5004 26.0023 13.5 26.4ZM22.6945 21.6107C22.4889 21.4733 22.2472 21.4 22 21.4C21.6686 21.4004 21.3509 21.5322 21.1165 21.7666C20.8822 22.0009 20.7504 22.3186 20.75 22.65C20.75 22.8973 20.8233 23.1389 20.9607 23.3445C21.098 23.55 21.2932 23.7103 21.5216 23.8049C21.7501 23.8995 22.0014 23.9242 22.2439 23.876C22.4863 23.8278 22.7091 23.7087 22.8839 23.5339C23.0587 23.3591 23.1777 23.1364 23.226 22.8939C23.2742 22.6514 23.2495 22.4001 23.1549 22.1717C23.0602 21.9433 22.9 21.748 22.6945 21.6107ZM19.5 26.4V28.9H24.5V26.4C24.4996 26.0023 24.3414 25.6211 24.0602 25.3398C23.779 25.0586 23.3977 24.9005 23 24.9H21C20.6023 24.9005 20.221 25.0586 19.9398 25.3398C19.6586 25.6211 19.5004 26.0023 19.5 26.4ZM28.6945 21.6107C28.4889 21.4733 28.2472 21.4 28 21.4C27.6686 21.4004 27.3509 21.5322 27.1165 21.7666C26.8822 22.0009 26.7504 22.3186 26.75 22.65C26.75 22.8973 26.8233 23.1389 26.9607 23.3445C27.098 23.55 27.2932 23.7103 27.5216 23.8049C27.7501 23.8995 28.0014 23.9242 28.2439 23.876C28.4863 23.8278 28.7091 23.7087 28.8839 23.5339C29.0587 23.3591 29.1777 23.1364 29.226 22.8939C29.2742 22.6514 29.2495 22.4001 29.1549 22.1717C29.0602 21.9433 28.9 21.748 28.6945 21.6107ZM25.5 26.4V28.9H30.5V26.4C30.4996 26.0023 30.3414 25.6211 30.0602 25.3398C29.779 25.0586 29.3977 24.9005 29 24.9H27C26.6023 24.9005 26.221 25.0586 25.9398 25.3398C25.6586 25.6211 25.5004 26.0023 25.5 26.4ZM19.2 6.30005C18.9239 6.30005 18.7 6.07619 18.7 5.80005C18.7 5.52391 18.9239 5.30005 19.2 5.30005C19.4762 5.30005 19.7 5.52391 19.7 5.80005C19.7 6.07619 19.4762 6.30005 19.2 6.30005ZM25.2 5.30005H21.2C20.9239 5.30005 20.7 5.52391 20.7 5.80005C20.7 6.07619 20.9239 6.30005 21.2 6.30005H25.2C25.4762 6.30005 25.7 6.07619 25.7 5.80005C25.7 5.52391 25.4762 5.30005 25.2 5.30005ZM19.2 8.30005C18.9239 8.30005 18.7 8.07619 18.7 7.80005C18.7 7.52391 18.9239 7.30005 19.2 7.30005C19.4762 7.30005 19.7 7.52391 19.7 7.80005C19.7 8.07619 19.4762 8.30005 19.2 8.30005ZM25.2 7.30005H21.2C20.9239 7.30005 20.7 7.52391 20.7 7.80005C20.7 8.07619 20.9239 8.30005 21.2 8.30005H25.2C25.4762 8.30005 25.7 8.07619 25.7 7.80005C25.7 7.52391 25.4762 7.30005 25.2 7.30005ZM19.2 10.3C18.9239 10.3 18.7 10.0762 18.7 9.80005C18.7 9.52391 18.9239 9.30005 19.2 9.30005C19.4762 9.30005 19.7 9.52391 19.7 9.80005C19.7 10.0762 19.4762 10.3 19.2 10.3ZM25.2 9.30005H21.2C20.9239 9.30005 20.7 9.52391 20.7 9.80005C20.7 10.0762 20.9239 10.3 21.2 10.3H25.2C25.4762 10.3 25.7 10.0762 25.7 9.80005C25.7 9.52391 25.4762 9.30005 25.2 9.30005Z" fill="#4F4F4F"/>
<path d="M12 14.3V14.2H11.9V14.3H12ZM3.99999 14.3H4.09999V14.2H3.99999V14.3ZM2.44643 14.1536L2.37572 14.2243L2.44643 14.1536ZM2.44643 1.4465L2.37572 1.37578V1.37578L2.44643 1.4465ZM29.5535 1.4465L29.6243 1.37579V1.37578L29.5535 1.4465ZM29.5535 14.1536L29.6243 14.2243V14.2243L29.5535 14.1536ZM11 14.24V14.34H11.1V14.24H11ZM4.99999 14.24H4.89999V14.34H4.99999V14.24ZM11 11.8H11.1V11.7H11V11.8ZM4.99999 11.8V11.7H4.89999V11.8H4.99999ZM8.99999 8.30005L9.00009 8.20005H8.99999V8.30005ZM9.7068 8.59323L9.77751 8.52252H9.77751L9.7068 8.59323ZM6.99999 8.30005V8.20005H6.99989L6.99999 8.30005ZM6.29317 8.59323L6.22246 8.52252L6.29317 8.59323ZM5.99999 9.30005L5.89999 9.29995V9.30005H5.99999ZM5.99999 10.8H5.89999V10.9H5.99999V10.8ZM9.99999 10.8V10.9H10.1V10.8H9.99999ZM9.99999 9.30005H10.1V9.29995L9.99999 9.30005ZM6.99999 6.30005H6.89999V6.30015L6.99999 6.30005ZM7.99999 7.30005L7.99989 7.40005H7.99999V7.30005ZM8.55556 7.13152L8.61112 7.21467L8.55556 7.13152ZM8.92387 6.68273L9.01626 6.721V6.721L8.92387 6.68273ZM8.98077 6.10496L8.88269 6.12447V6.12447L8.98077 6.10496ZM8.7071 5.59294L8.77781 5.52223L8.7071 5.59294ZM8.19508 5.31926L8.21459 5.22118H8.21459L8.19508 5.31926ZM7.6173 5.37617L7.57904 5.28378H7.57904L7.6173 5.37617ZM11 10.8H10.9V10.9H11V10.8ZM12 13.3H11.9V13.4H12V13.3ZM28.7 13.3V13.4H28.8V13.3H28.7ZM28.7 2.30005H28.8V2.20005H28.7V2.30005ZM3.29999 2.30005V2.20005H3.19999V2.30005H3.29999ZM3.29999 13.3H3.19999V13.4H3.29999V13.3ZM3.99999 13.3V13.4H4.09999V13.3H3.99999ZM4.14643 10.9465L4.21715 11.0172L4.14643 10.9465ZM4.99999 10.8V10.9H5.09999V10.8H4.99999ZM4.99999 9.30005L4.89999 9.29972V9.30005H4.99999ZM5.37216 8.14563L5.2908 8.08749L5.37216 8.14563ZM6.34383 7.41965L6.37652 7.51415L6.49972 7.47153L6.42664 7.36359L6.34383 7.41965ZM6.00286 6.40566L6.10272 6.4003L6.00286 6.40566ZM6.23329 5.361L6.14496 5.31412L6.23329 5.361ZM9.76669 5.361L9.85502 5.31412L9.76669 5.361ZM9.99711 6.40566L10.097 6.41102V6.41102L9.99711 6.40566ZM9.65615 7.41965L9.57334 7.36359L9.50026 7.47153L9.62346 7.51415L9.65615 7.41965ZM10.6278 8.14563L10.5465 8.20378V8.20378L10.6278 8.14563ZM11 9.30005H11.1L11.1 9.29972L11 9.30005ZM25.7 12.3V12.4H25.7001L25.7 12.3ZM18.7 12.3L18.6999 12.4H18.7V12.3ZM27.7 10.3L27.8 10.3002V10.3H27.7ZM27.7 5.30005H27.8V5.29993L27.7 5.30005ZM25.7 3.30005L25.7001 3.20005H25.7V3.30005ZM18.7 3.30005V3.20005L18.6999 3.20005L18.7 3.30005ZM16.7 5.30005L16.6 5.29993V5.30005H16.7ZM16.7 10.3H16.6V10.3002L16.7 10.3ZM17.7 5.30005L17.6 5.29995V5.30005H17.7ZM18.7 4.30005V4.20005L18.6999 4.20005L18.7 4.30005ZM25.7 4.30005L25.7001 4.20005H25.7V4.30005ZM26.7 5.30005H26.8V5.29995L26.7 5.30005ZM26.7 10.3L26.8 10.3001V10.3H26.7ZM25.7 11.3V11.4H25.7001L25.7 11.3ZM18.7 11.3L18.6999 11.4H18.7V11.3ZM17.7 10.3H17.6V10.3001L17.7 10.3ZM8.87081 17.4L8.78766 17.4555L8.87081 17.4ZM9.25 18.65L9.35 18.6501V18.65H9.25ZM7.86104 16.5713L7.82277 16.6637H7.82277L7.86104 16.5713ZM6.56105 16.4433L6.54154 16.3452L6.56105 16.4433ZM5.40901 17.059L5.47972 17.1297V17.1297L5.40901 17.059ZM4.79323 18.2111L4.89131 18.2306L4.79323 18.2111ZM4.92127 19.5111L5.01366 19.4728H5.01366L4.92127 19.5111ZM5.74997 20.5208L5.80553 20.4377H5.80553L5.74997 20.5208ZM7 20.9V21H7.00011L7 20.9ZM5.96066 17.9556L5.87752 17.9L5.96066 17.9556ZM5.75 18.65H5.65V18.6501L5.75 18.65ZM6.52165 17.4952L6.48338 17.4028H6.48338L6.52165 17.4952ZM7.24386 17.424L7.26337 17.326H7.26337L7.24386 17.424ZM7.88388 17.7661L7.9546 17.6954L7.88388 17.7661ZM8.22598 18.4062L8.1279 18.4257L8.22598 18.4062ZM8.15485 19.1284L8.06246 19.0901L8.06246 19.0901L8.15485 19.1284ZM7.69446 19.6894L7.63891 19.6062L7.69446 19.6894ZM7 19.9L6.99988 20H7V19.9ZM6.11655 19.5335L6.18726 19.4628L6.11655 19.5335ZM15.25 18.65L15.35 18.6501V18.65H15.25ZM13.861 16.5713L13.8228 16.6637L13.861 16.5713ZM12.561 16.4433L12.5415 16.3452L12.561 16.4433ZM10.7932 18.2111L10.6952 18.1916L10.7932 18.2111ZM10.9213 19.5111L10.8289 19.5493L10.9213 19.5111ZM11.75 20.5208L11.8055 20.4377L11.75 20.5208ZM13 20.9V21H13.0001L13 20.9ZM11.9607 17.9556L11.8775 17.9L11.9607 17.9556ZM11.75 18.65H11.65V18.6501L11.75 18.65ZM12.5216 17.4952L12.4834 17.4028L12.5216 17.4952ZM13.2439 17.424L13.2634 17.326L13.2439 17.424ZM13.8839 17.7661L13.9546 17.6954H13.9546L13.8839 17.7661ZM14.226 18.4062L14.1279 18.4257L14.226 18.4062ZM14.1549 19.1284L14.0625 19.0901V19.0901L14.1549 19.1284ZM13 19.9L12.9999 20H13V19.9ZM12.1165 19.5335L12.1873 19.4628H12.1873L12.1165 19.5335ZM21.25 18.65L21.35 18.6501V18.65H21.25ZM20.8708 17.4L20.7877 17.4555L20.8708 17.4ZM19 20.9V21H19.0001L19 20.9ZM17.75 20.5208L17.8055 20.4377L17.75 20.5208ZM16.9213 19.5111L16.8289 19.5493L16.9213 19.5111ZM16.7932 18.2111L16.6952 18.1916L16.7932 18.2111ZM17.409 17.059L17.3383 16.9883V16.9883L17.409 17.059ZM18.561 16.4433L18.5415 16.3452L18.561 16.4433ZM19.861 16.5713L19.8228 16.6637L19.861 16.5713ZM17.75 18.65H17.65V18.6501L17.75 18.65ZM17.9607 17.9556L17.8775 17.9L17.9607 17.9556ZM19 19.9L18.9999 20H19V19.9ZM19.6945 19.6894L19.6389 19.6062L19.6945 19.6894ZM20.1549 19.1284L20.0625 19.0901V19.0901L20.1549 19.1284ZM20.226 18.4062L20.1279 18.4257V18.4257L20.226 18.4062ZM19.2439 17.424L19.2634 17.326H19.2634L19.2439 17.424ZM18.5216 17.4952L18.4834 17.4028H18.4834L18.5216 17.4952ZM26.8708 17.4L26.7877 17.4555L26.8708 17.4ZM27.25 18.65L27.35 18.6501V18.65H27.25ZM25.861 16.5713L25.8228 16.6637L25.861 16.5713ZM24.561 16.4433L24.5415 16.3452L24.561 16.4433ZM23.409 17.059L23.3383 16.9883V16.9883L23.409 17.059ZM22.7932 18.2111L22.6952 18.1916L22.7932 18.2111ZM22.9213 19.5111L22.8289 19.5493L22.9213 19.5111ZM23.75 20.5208L23.8055 20.4377L23.75 20.5208ZM25 20.9V21H25.0001L25 20.9ZM23.9607 17.9556L23.8775 17.9L23.9607 17.9556ZM23.75 18.65H23.65V18.6501L23.75 18.65ZM24.5216 17.4952L24.4834 17.4028H24.4834L24.5216 17.4952ZM25.2439 17.424L25.2634 17.326H25.2634L25.2439 17.424ZM26.226 18.4062L26.1279 18.4257V18.4257L26.226 18.4062ZM26.1549 19.1284L26.0625 19.0901V19.0901L26.1549 19.1284ZM25.6945 19.6894L25.6389 19.6062L25.6945 19.6894ZM25 19.9L24.9999 20H25V19.9ZM29.7625 24.0316L29.6844 23.9692L29.5937 24.0827L29.7322 24.1269L29.7625 24.0316ZM30.25 22.65L30.35 22.6504V22.65H30.25ZM31.5 26.4H31.6L31.6 26.3997L31.5 26.4ZM0.646447 29.7536L0.717158 29.6829L0.646447 29.7536ZM0.5 26.4L0.4 26.3997V26.4H0.5ZM2.23745 24.0316L2.26782 24.1269L2.40634 24.0827L2.31557 23.9692L2.23745 24.0316ZM1.75 22.65H1.65L1.65 22.6504L1.75 22.65ZM6.25 22.65L6.35 22.6504V22.65H6.25ZM5.76255 24.0316L5.68443 23.9692L5.59388 24.0824L5.73197 24.1268L5.76255 24.0316ZM7 24.9155L6.91985 24.9753L7 25.0827L7.08015 24.9753L7 24.9155ZM8.23746 24.0316L8.26803 24.1268L8.40612 24.0824L8.31557 23.9692L8.23746 24.0316ZM7.75 22.65H7.65L7.65 22.6504L7.75 22.65ZM12.25 22.65L12.35 22.6504V22.65H12.25ZM11.7625 24.0316L11.6844 23.9692L11.5939 24.0824L11.732 24.1268L11.7625 24.0316ZM13 24.9155L12.9199 24.9753L13 25.0827L13.0801 24.9753L13 24.9155ZM14.2375 24.0316L14.268 24.1268L14.4061 24.0824L14.3156 23.9692L14.2375 24.0316ZM13.75 22.65H13.65L13.65 22.6504L13.75 22.65ZM18.25 22.65L18.35 22.6504V22.65H18.25ZM17.7625 24.0316L17.6844 23.9692L17.5939 24.0824L17.732 24.1268L17.7625 24.0316ZM19 24.9155L18.9199 24.9753L19 25.0827L19.0801 24.9753L19 24.9155ZM20.2375 24.0316L20.268 24.1268L20.4061 24.0824L20.3156 23.9692L20.2375 24.0316ZM19.75 22.65H19.65L19.65 22.6504L19.75 22.65ZM24.25 22.65L24.35 22.6504V22.65H24.25ZM23.7625 24.0316L23.6844 23.9692L23.5939 24.0824L23.732 24.1268L23.7625 24.0316ZM25 24.9155L24.9199 24.9753L25 25.0827L25.0801 24.9753L25 24.9155ZM26.2375 24.0316L26.268 24.1268L26.4061 24.0824L26.3156 23.9692L26.2375 24.0316ZM25.75 22.65H25.65L25.65 22.6504L25.75 22.65ZM4 21.4V21.3H3.99988L4 21.4ZM4.69446 21.6107L4.63891 21.6938L4.69446 21.6107ZM2.75 22.65L2.65 22.6499V22.65H2.75ZM1.5 28.9H1.4V29H1.5V28.9ZM1.5 26.4L1.4 26.3999V26.4H1.5ZM6.5 28.9V29H6.6V28.9H6.5ZM6.5 26.4H6.6V26.3999L6.5 26.4ZM5 24.9L5.00011 24.8H5V24.9ZM3 24.9V24.8H2.99989L3 24.9ZM10 21.4V21.3H9.99988L10 21.4ZM8.75 22.65L8.65 22.6499V22.65H8.75ZM7.5 28.9H7.4V29H7.5V28.9ZM7.5 26.4L7.4 26.3999V26.4H7.5ZM12.5 28.9V29H12.6V28.9H12.5ZM12.5 26.4H12.6V26.3999L12.5 26.4ZM11 24.9L11.0001 24.8H11V24.9ZM9 24.9V24.8H8.99989L9 24.9ZM16 21.4V21.3H15.9999L16 21.4ZM16.6945 21.6107L16.75 21.5275L16.6945 21.6107ZM14.75 22.65L14.65 22.6499V22.65H14.75ZM13.5 28.9H13.4V29H13.5V28.9ZM13.5 26.4L13.4 26.3999V26.4H13.5ZM18.5 28.9V29H18.6V28.9H18.5ZM18.5 26.4H18.6V26.3999L18.5 26.4ZM17 24.9L17.0001 24.8H17V24.9ZM15 24.9V24.8H14.9999L15 24.9ZM22 21.4V21.3H21.9999L22 21.4ZM20.75 22.65L20.65 22.6499V22.65H20.75ZM19.5 28.9H19.4V29H19.5V28.9ZM19.5 26.4L19.4 26.3999V26.4H19.5ZM24.5 28.9V29H24.6V28.9H24.5ZM24.5 26.4H24.6V26.3999L24.5 26.4ZM23 24.9L23.0001 24.8H23V24.9ZM21 24.9V24.8H20.9999L21 24.9ZM28 21.4V21.3H27.9999L28 21.4ZM26.75 22.65L26.65 22.6499V22.65H26.75ZM25.5 28.9H25.4V29H25.5V28.9ZM25.5 26.4L25.4 26.3999V26.4H25.5ZM30.5 28.9V29H30.6V28.9H30.5ZM30.5 26.4H30.6V26.3999L30.5 26.4ZM29 24.9L29.0001 24.8H29V24.9ZM27 24.9V24.8H26.9999L27 24.9ZM12 14.4H29.2V14.2H12V14.4ZM11.1 15.3C11.6523 15.3 12.1 14.8523 12.1 14.3H11.9C11.9 14.7419 11.5418 15.1 11.1 15.1V15.3ZM4.89999 15.3H11.1V15.1H4.89999V15.3ZM3.89999 14.3C3.89999 14.8523 4.3477 15.3 4.89999 15.3V15.1C4.45816 15.1 4.09999 14.7419 4.09999 14.3H3.89999ZM2.79999 14.4H3.99999V14.2H2.79999V14.4ZM2.37572 14.2243C2.48825 14.3368 2.64086 14.4 2.79999 14.4V14.2C2.6939 14.2 2.59216 14.1579 2.51714 14.0829L2.37572 14.2243ZM2.19999 13.8C2.19999 13.9592 2.2632 14.1118 2.37572 14.2243L2.51715 14.0829C2.44213 14.0079 2.39999 13.9061 2.39999 13.8H2.19999ZM2.19999 1.80005V13.8H2.39999V1.80005H2.19999ZM2.37572 1.37578C2.2632 1.48831 2.19999 1.64092 2.19999 1.80005H2.39999C2.39999 1.69396 2.44213 1.59222 2.51715 1.51721L2.37572 1.37578ZM2.79999 1.20005C2.64086 1.20005 2.48825 1.26326 2.37572 1.37578L2.51714 1.51721C2.59216 1.44219 2.6939 1.40005 2.79999 1.40005V1.20005ZM29.2 1.20005H2.79999V1.40005H29.2V1.20005ZM29.6243 1.37578C29.5117 1.26326 29.3591 1.20005 29.2 1.20005V1.40005C29.3061 1.40005 29.4078 1.44219 29.4828 1.51721L29.6243 1.37578ZM29.8 1.80005C29.8 1.64092 29.7368 1.48831 29.6243 1.37579L29.4828 1.51721C29.5578 1.59222 29.6 1.69396 29.6 1.80005H29.8ZM29.8 13.8V1.80005H29.6V13.8H29.8ZM29.6243 14.2243C29.7368 14.1118 29.8 13.9592 29.8 13.8H29.6C29.6 13.9061 29.5578 14.0079 29.4828 14.0829L29.6243 14.2243ZM29.2 14.4C29.3591 14.4 29.5117 14.3368 29.6243 14.2243L29.4828 14.0829C29.4078 14.1579 29.3061 14.2 29.2 14.2V14.4ZM11 14.14H4.99999V14.34H11V14.14ZM10.9 11.8V14.24H11.1V11.8H10.9ZM4.99999 11.9H11V11.7H4.99999V11.9ZM5.09999 14.24V11.8H4.89999V14.24H5.09999ZM8.99989 8.40005C9.23854 8.40029 9.46734 8.49519 9.63609 8.66394L9.77751 8.52252C9.57131 8.31632 9.29171 8.20034 9.00009 8.20005L8.99989 8.40005ZM6.99999 8.40005H8.99999V8.20005H6.99999V8.40005ZM6.36388 8.66394C6.53263 8.49519 6.76144 8.40029 7.00009 8.40005L6.99989 8.20005C6.70827 8.20034 6.42867 8.31632 6.22246 8.52252L6.36388 8.66394ZM6.09999 9.30015C6.10023 9.0615 6.19513 8.83269 6.36388 8.66394L6.22246 8.52252C6.01625 8.72873 5.90028 9.00833 5.89999 9.29995L6.09999 9.30015ZM6.09999 10.8V9.30005H5.89999V10.8H6.09999ZM9.99999 10.7H5.99999V10.9H9.99999V10.7ZM9.89999 9.30005V10.8H10.1V9.30005H9.89999ZM9.63609 8.66394C9.80484 8.83269 9.89975 9.0615 9.89999 9.30015L10.1 9.29995C10.0997 9.00833 9.98372 8.72873 9.77751 8.52252L9.63609 8.66394ZM7.09999 6.30005C7.09999 6.12205 7.15277 5.94804 7.25167 5.80003L7.08537 5.68892C6.9645 5.86982 6.89999 6.08249 6.89999 6.30005H7.09999ZM7.36388 6.93615C7.19513 6.7674 7.10023 6.5386 7.09999 6.29995L6.89999 6.30015C6.90028 6.59177 7.01625 6.87137 7.22246 7.07757L7.36388 6.93615ZM8.00009 7.20005C7.76144 7.19981 7.53263 7.1049 7.36388 6.93615L7.22246 7.07757C7.42867 7.28378 7.70827 7.39976 7.99989 7.40005L8.00009 7.20005ZM8.5 7.04837C8.352 7.14726 8.17799 7.20005 7.99999 7.20005V7.40005C8.21755 7.40005 8.43022 7.33554 8.61112 7.21467L8.5 7.04837ZM8.83148 6.64446C8.76336 6.80892 8.64801 6.94948 8.5 7.04837L8.61112 7.21467C8.79201 7.0938 8.933 6.922 9.01626 6.721L8.83148 6.64446ZM8.88269 6.12447C8.91742 6.29905 8.8996 6.48001 8.83148 6.64446L9.01626 6.721C9.09951 6.52 9.1213 6.29883 9.07885 6.08545L8.88269 6.12447ZM8.63638 5.66365C8.76225 5.78952 8.84797 5.94988 8.88269 6.12447L9.07885 6.08545C9.03641 5.87207 8.93164 5.67607 8.77781 5.52223L8.63638 5.66365ZM8.17557 5.41734C8.35015 5.45207 8.51052 5.53779 8.63638 5.66365L8.77781 5.52223C8.62397 5.36839 8.42797 5.26363 8.21459 5.22118L8.17557 5.41734ZM7.65557 5.46856C7.82003 5.40044 8.00099 5.38262 8.17557 5.41734L8.21459 5.22118C8.00121 5.17874 7.78003 5.20052 7.57904 5.28378L7.65557 5.46856ZM7.25167 5.80003C7.35056 5.65203 7.49112 5.53668 7.65557 5.46856L7.57904 5.28378C7.37804 5.36704 7.20624 5.50803 7.08537 5.68892L7.25167 5.80003ZM11.5 10.7H11V10.9H11.5V10.7ZM11.9243 10.8758C11.8117 10.7633 11.6591 10.7 11.5 10.7V10.9C11.6061 10.9 11.7078 10.9422 11.7828 11.0172L11.9243 10.8758ZM12.1 11.3C12.1 11.1409 12.0368 10.9883 11.9243 10.8758L11.7828 11.0172C11.8578 11.0922 11.9 11.194 11.9 11.3H12.1ZM12.1 13.3V11.3H11.9V13.3H12.1ZM28.7 13.2H12V13.4H28.7V13.2ZM28.6 2.30005V13.3H28.8V2.30005H28.6ZM3.29999 2.40005H28.7V2.20005H3.29999V2.40005ZM3.39999 13.3V2.30005H3.19999V13.3H3.39999ZM3.99999 13.2H3.29999V13.4H3.99999V13.2ZM3.89999 11.3V13.3H4.09999V11.3H3.89999ZM4.07572 10.8758C3.9632 10.9883 3.89999 11.1409 3.89999 11.3H4.09999C4.09999 11.194 4.14213 11.0922 4.21715 11.0172L4.07572 10.8758ZM4.49999 10.7C4.34086 10.7 4.18825 10.7633 4.07572 10.8758L4.21715 11.0172C4.29216 10.9422 4.3939 10.9 4.49999 10.9V10.7ZM4.99999 10.7H4.49999V10.9H4.99999V10.7ZM4.89999 9.30005V10.8H5.09999V9.30005H4.89999ZM5.2908 8.08749C5.03797 8.44126 4.9014 8.8649 4.89999 9.29972L5.09999 9.30037C5.10126 8.90702 5.22481 8.5238 5.45352 8.20378L5.2908 8.08749ZM6.31113 7.32514C5.9002 7.4673 5.54363 7.73371 5.2908 8.08749L5.45352 8.20378C5.68223 7.88375 6.00479 7.64275 6.37652 7.51415L6.31113 7.32514ZM5.90301 6.41102C5.92346 6.79184 6.04722 7.15991 6.26102 7.47571L6.42664 7.36359C6.2332 7.07786 6.12122 6.74485 6.10272 6.4003L5.90301 6.41102ZM6.14496 5.31412C5.9662 5.65101 5.88256 6.0302 5.90301 6.41102L6.10272 6.4003C6.08422 6.05575 6.1599 5.71267 6.32163 5.40787L6.14496 5.31412ZM6.91764 4.49884C6.59083 4.6954 6.32371 4.97724 6.14496 5.31412L6.32163 5.40787C6.48336 5.10307 6.72503 4.84807 7.02072 4.67023L6.91764 4.49884ZM7.99999 4.19843C7.61862 4.19843 7.24445 4.30228 6.91764 4.49884L7.02072 4.67023C7.31641 4.49239 7.65494 4.39843 7.99999 4.39843V4.19843ZM9.08234 4.49884C8.75553 4.30228 8.38136 4.19843 7.99999 4.19843V4.39843C8.34504 4.39843 8.68357 4.49239 8.97926 4.67023L9.08234 4.49884ZM9.85502 5.31412C9.67627 4.97724 9.40915 4.6954 9.08234 4.49884L8.97926 4.67023C9.27494 4.84807 9.51662 5.10307 9.67835 5.40787L9.85502 5.31412ZM10.097 6.41102C10.1174 6.0302 10.0338 5.65101 9.85502 5.31412L9.67835 5.40787C9.84008 5.71267 9.91576 6.05575 9.89725 6.4003L10.097 6.41102ZM9.73896 7.47571C9.95275 7.15991 10.0765 6.79184 10.097 6.41102L9.89725 6.4003C9.87875 6.74485 9.76678 7.07786 9.57334 7.36359L9.73896 7.47571ZM10.7092 8.08749C10.4563 7.73371 10.0998 7.4673 9.68884 7.32514L9.62346 7.51415C9.99519 7.64275 10.3177 7.88375 10.5465 8.20378L10.7092 8.08749ZM11.1 9.29972C11.0986 8.8649 10.962 8.44126 10.7092 8.08749L10.5465 8.20378C10.7752 8.5238 10.8987 8.90702 10.9 9.30037L11.1 9.29972ZM11.1 10.8V9.30005H10.9V10.8H11.1ZM25.7 12.2H18.7V12.4H25.7V12.2ZM27.0428 11.6429C26.6866 11.9991 26.2037 12.1995 25.6999 12.2L25.7001 12.4C26.2569 12.3994 26.7906 12.178 27.1843 11.7843L27.0428 11.6429ZM27.6 10.2999C27.5994 10.8037 27.3991 11.2867 27.0428 11.6429L27.1843 11.7843C27.5779 11.3906 27.7994 10.8569 27.8 10.3002L27.6 10.2999ZM27.6 5.30005V10.3H27.8V5.30005H27.6ZM27.0428 3.95722C27.3991 4.31343 27.5994 4.7964 27.6 5.30016L27.8 5.29993C27.7994 4.74321 27.5779 4.20946 27.1843 3.81579L27.0428 3.95722ZM25.6999 3.40005C26.2037 3.40062 26.6866 3.601 27.0428 3.95722L27.1843 3.81579C26.7906 3.42213 26.2569 3.20069 25.7001 3.20005L25.6999 3.40005ZM18.7 3.40005H25.7V3.20005H18.7V3.40005ZM17.3572 3.95722C17.7134 3.601 18.1964 3.40062 18.7001 3.40005L18.6999 3.20005C18.1432 3.20069 17.6094 3.42213 17.2158 3.81579L17.3572 3.95722ZM16.8 5.30016C16.8006 4.7964 17.001 4.31343 17.3572 3.95722L17.2158 3.81579C16.8221 4.20946 16.6006 4.74321 16.6 5.29993L16.8 5.30016ZM16.8 10.3V5.30005H16.6V10.3H16.8ZM17.3572 11.6429C17.001 11.2867 16.8006 10.8037 16.8 10.2999L16.6 10.3002C16.6006 10.8569 16.8221 11.3906 17.2158 11.7843L17.3572 11.6429ZM18.7001 12.2C18.1964 12.1995 17.7134 11.9991 17.3572 11.6429L17.2158 11.7843C17.6094 12.178 18.1432 12.3994 18.6999 12.4L18.7001 12.2ZM17.9225 4.52252C17.7163 4.72873 17.6003 5.00833 17.6 5.29995L17.8 5.30015C17.8003 5.0615 17.8952 4.8327 18.0639 4.66395L17.9225 4.52252ZM18.6999 4.20005C18.4083 4.20034 18.1287 4.31632 17.9225 4.52252L18.0639 4.66395C18.2327 4.4952 18.4615 4.40029 18.7001 4.40005L18.6999 4.20005ZM25.7 4.20005H18.7V4.40005H25.7V4.20005ZM26.4775 4.52252C26.2713 4.31632 25.9917 4.20034 25.7001 4.20005L25.6999 4.40005C25.9386 4.40029 26.1674 4.4952 26.3361 4.66395L26.4775 4.52252ZM26.8 5.29995C26.7997 5.00833 26.6837 4.72873 26.4775 4.52252L26.3361 4.66395C26.5049 4.8327 26.5998 5.0615 26.6 5.30015L26.8 5.29995ZM26.8 10.3V5.30005H26.6V10.3H26.8ZM26.4775 11.0776C26.6837 10.8714 26.7997 10.5918 26.8 10.3001L26.6 10.2999C26.5998 10.5386 26.5049 10.7674 26.3361 10.9362L26.4775 11.0776ZM25.7001 11.4C25.9917 11.3998 26.2713 11.2838 26.4775 11.0776L26.3361 10.9362C26.1674 11.1049 25.9386 11.1998 25.6999 11.2L25.7001 11.4ZM18.7 11.4H25.7V11.2H18.7V11.4ZM17.9225 11.0776C18.1287 11.2838 18.4083 11.3998 18.6999 11.4L18.7001 11.2C18.4615 11.1998 18.2327 11.1049 18.0639 10.9362L17.9225 11.0776ZM17.6 10.3001C17.6003 10.5918 17.7163 10.8714 17.9225 11.0776L18.0639 10.9362C17.8952 10.7674 17.8003 10.5386 17.8 10.2999L17.6 10.3001ZM17.6 5.30005V10.3H17.8V5.30005H17.6ZM8.78766 17.4555C9.02391 17.8091 9.15 18.2248 9.15 18.65H9.35C9.35 18.1852 9.21218 17.7309 8.95395 17.3444L8.78766 17.4555ZM7.82277 16.6637C8.21563 16.8264 8.55142 17.102 8.78766 17.4555L8.95395 17.3444C8.69573 16.958 8.32871 16.6568 7.89931 16.4789L7.82277 16.6637ZM6.58056 16.5413C6.99762 16.4584 7.42991 16.501 7.82277 16.6637L7.89931 16.4789C7.4699 16.301 6.99739 16.2545 6.54154 16.3452L6.58056 16.5413ZM5.47972 17.1297C5.7804 16.8291 6.1635 16.6243 6.58056 16.5413L6.54154 16.3452C6.08568 16.4359 5.66695 16.6597 5.3383 16.9883L5.47972 17.1297ZM4.89131 18.2306C4.97427 17.8135 5.17904 17.4304 5.47972 17.1297L5.3383 16.9883C5.00965 17.317 4.78583 17.7357 4.69516 18.1916L4.89131 18.2306ZM5.01366 19.4728C4.85093 19.0799 4.80835 18.6476 4.89131 18.2306L4.69516 18.1916C4.60448 18.6474 4.65102 19.1199 4.82888 19.5493L5.01366 19.4728ZM5.80553 20.4377C5.45196 20.2014 5.17639 19.8657 5.01366 19.4728L4.82888 19.5493C5.00675 19.9787 5.30796 20.3458 5.69441 20.604L5.80553 20.4377ZM7 20.8C6.57477 20.8 6.15909 20.6739 5.80553 20.4377L5.69441 20.604C6.08087 20.8622 6.53521 21 7 21V20.8ZM8.51956 20.1696C8.11647 20.5727 7.56995 20.7994 6.99989 20.8L7.00011 21C7.62313 20.9993 8.22044 20.7516 8.66098 20.311L8.51956 20.1696ZM9.15 18.6499C9.14938 19.22 8.92265 19.7665 8.51956 20.1696L8.66098 20.311C9.10153 19.8705 9.34932 19.2732 9.35 18.6501L9.15 18.6499ZM5.87752 17.9C5.72918 18.122 5.65 18.383 5.65 18.65H5.85C5.85 18.4226 5.91745 18.2002 6.04381 18.0111L5.87752 17.9ZM6.48338 17.4028C6.2367 17.505 6.02586 17.678 5.87752 17.9L6.04381 18.0111C6.17017 17.822 6.34978 17.6746 6.55992 17.5876L6.48338 17.4028ZM7.26337 17.326C7.0015 17.2739 6.73006 17.3006 6.48338 17.4028L6.55991 17.5876C6.77005 17.5005 7.00128 17.4777 7.22436 17.5221L7.26337 17.326ZM7.9546 17.6954C7.76579 17.5066 7.52525 17.3781 7.26337 17.326L7.22435 17.5221C7.44743 17.5665 7.65234 17.676 7.81317 17.8369L7.9546 17.6954ZM8.32406 18.3867C8.27197 18.1248 8.1434 17.8842 7.9546 17.6954L7.81317 17.8369C7.974 17.9977 8.08353 18.2026 8.1279 18.4257L8.32406 18.3867ZM8.24724 19.1666C8.34942 18.92 8.37615 18.6485 8.32406 18.3867L8.1279 18.4257C8.17228 18.6488 8.1495 18.88 8.06246 19.0901L8.24724 19.1666ZM7.75002 19.7725C7.97203 19.6242 8.14506 19.4133 8.24724 19.1666L8.06246 19.0901C7.97542 19.3002 7.82802 19.4799 7.63891 19.6062L7.75002 19.7725ZM7 20C7.26701 20 7.52801 19.9208 7.75002 19.7725L7.63891 19.6062C7.44979 19.7326 7.22745 19.8 7 19.8V20ZM6.04584 19.6042C6.2989 19.8573 6.642 19.9996 6.99988 20L7.00012 19.8C6.6952 19.7997 6.40287 19.6784 6.18726 19.4628L6.04584 19.6042ZM5.65 18.6501C5.65042 19.008 5.79278 19.3511 6.04584 19.6042L6.18726 19.4628C5.97165 19.2472 5.85036 18.9548 5.85 18.6499L5.65 18.6501ZM14.7877 17.4555C15.0239 17.8091 15.15 18.2248 15.15 18.65H15.35C15.35 18.1852 15.2122 17.7309 14.954 17.3444L14.7877 17.4555ZM13.8228 16.6637C14.2156 16.8264 14.5514 17.102 14.7877 17.4555L14.954 17.3444C14.6957 16.958 14.3287 16.6568 13.8993 16.4789L13.8228 16.6637ZM12.5806 16.5413C12.9976 16.4584 13.4299 16.501 13.8228 16.6637L13.8993 16.4789C13.4699 16.301 12.9974 16.2545 12.5415 16.3452L12.5806 16.5413ZM11.4797 17.1297C11.7804 16.8291 12.1635 16.6243 12.5806 16.5413L12.5415 16.3452C12.0857 16.4359 11.667 16.6597 11.3383 16.9883L11.4797 17.1297ZM10.8913 18.2306C10.9743 17.8135 11.179 17.4304 11.4797 17.1297L11.3383 16.9883C11.0096 17.317 10.7858 17.7357 10.6952 18.1916L10.8913 18.2306ZM11.0137 19.4728C10.8509 19.0799 10.8084 18.6476 10.8913 18.2306L10.6952 18.1916C10.6045 18.6474 10.651 19.1199 10.8289 19.5493L11.0137 19.4728ZM11.8055 20.4377C11.452 20.2014 11.1764 19.8657 11.0137 19.4728L10.8289 19.5493C11.0068 19.9787 11.308 20.3458 11.6944 20.604L11.8055 20.4377ZM13 20.8C12.5748 20.8 12.1591 20.6739 11.8055 20.4377L11.6944 20.604C12.0809 20.8622 12.5352 21 13 21V20.8ZM14.5196 20.1696C14.1165 20.5727 13.5699 20.7994 12.9999 20.8L13.0001 21C13.6231 20.9993 14.2204 20.7516 14.661 20.311L14.5196 20.1696ZM15.15 18.6499C15.1494 19.22 14.9227 19.7665 14.5196 20.1696L14.661 20.311C15.1015 19.8705 15.3493 19.2732 15.35 18.6501L15.15 18.6499ZM11.8775 17.9C11.7292 18.122 11.65 18.383 11.65 18.65H11.85C11.85 18.4226 11.9174 18.2002 12.0438 18.0111L11.8775 17.9ZM12.4834 17.4028C12.2367 17.505 12.0259 17.678 11.8775 17.9L12.0438 18.0111C12.1702 17.822 12.3498 17.6746 12.5599 17.5876L12.4834 17.4028ZM13.2634 17.326C13.0015 17.2739 12.7301 17.3006 12.4834 17.4028L12.5599 17.5876C12.7701 17.5005 13.0013 17.4777 13.2244 17.5221L13.2634 17.326ZM13.9546 17.6954C13.7658 17.5066 13.5252 17.3781 13.2634 17.326L13.2244 17.5221C13.4474 17.5665 13.6523 17.676 13.8132 17.8369L13.9546 17.6954ZM14.3241 18.3867C14.272 18.1248 14.1434 17.8842 13.9546 17.6954L13.8132 17.8369C13.974 17.9977 14.0835 18.2026 14.1279 18.4257L14.3241 18.3867ZM14.2472 19.1666C14.3494 18.92 14.3762 18.6485 14.3241 18.3867L14.1279 18.4257C14.1723 18.6488 14.1495 18.88 14.0625 19.0901L14.2472 19.1666ZM13.75 19.7725C13.972 19.6242 14.1451 19.4133 14.2472 19.1666L14.0625 19.0901C13.9754 19.3002 13.828 19.4799 13.6389 19.6062L13.75 19.7725ZM13 20C13.267 20 13.528 19.9208 13.75 19.7725L13.6389 19.6062C13.4498 19.7326 13.2274 19.8 13 19.8V20ZM12.0458 19.6042C12.2989 19.8573 12.642 19.9996 12.9999 20L13.0001 19.8C12.6952 19.7997 12.4029 19.6784 12.1873 19.4628L12.0458 19.6042ZM11.65 18.6501C11.6504 19.008 11.7928 19.3511 12.0458 19.6042L12.1873 19.4628C11.9716 19.2472 11.8504 18.9548 11.85 18.6499L11.65 18.6501ZM21.35 18.65C21.35 18.1852 21.2122 17.7309 20.954 17.3444L20.7877 17.4555C21.0239 17.8091 21.15 18.2248 21.15 18.65H21.35ZM20.661 20.311C21.1015 19.8705 21.3493 19.2732 21.35 18.6501L21.15 18.6499C21.1494 19.22 20.9227 19.7665 20.5196 20.1696L20.661 20.311ZM19.0001 21C19.6231 20.9993 20.2204 20.7516 20.661 20.311L20.5196 20.1696C20.1165 20.5727 19.5699 20.7994 18.9999 20.8L19.0001 21ZM17.6944 20.604C18.0809 20.8622 18.5352 21 19 21V20.8C18.5748 20.8 18.1591 20.6739 17.8055 20.4377L17.6944 20.604ZM16.8289 19.5493C17.0067 19.9787 17.308 20.3458 17.6944 20.604L17.8055 20.4377C17.452 20.2014 17.1764 19.8657 17.0137 19.4728L16.8289 19.5493ZM16.6952 18.1916C16.6045 18.6474 16.651 19.1199 16.8289 19.5493L17.0137 19.4728C16.8509 19.0799 16.8084 18.6476 16.8913 18.2306L16.6952 18.1916ZM17.3383 16.9883C17.0096 17.317 16.7858 17.7357 16.6952 18.1916L16.8913 18.2306C16.9743 17.8135 17.179 17.4304 17.4797 17.1297L17.3383 16.9883ZM18.5415 16.3452C18.0857 16.4359 17.667 16.6597 17.3383 16.9883L17.4797 17.1297C17.7804 16.8291 18.1635 16.6243 18.5806 16.5413L18.5415 16.3452ZM19.8993 16.4789C19.4699 16.301 18.9974 16.2545 18.5415 16.3452L18.5806 16.5413C18.9976 16.4584 19.4299 16.501 19.8228 16.6637L19.8993 16.4789ZM20.954 17.3444C20.6957 16.958 20.3287 16.6568 19.8993 16.4789L19.8228 16.6637C20.2156 16.8264 20.5514 17.102 20.7877 17.4555L20.954 17.3444ZM17.85 18.65C17.85 18.4226 17.9174 18.2002 18.0438 18.0111L17.8775 17.9C17.7292 18.122 17.65 18.383 17.65 18.65H17.85ZM18.1873 19.4628C17.9716 19.2472 17.8504 18.9548 17.85 18.6499L17.65 18.6501C17.6504 19.008 17.7928 19.3511 18.0458 19.6042L18.1873 19.4628ZM19.0001 19.8C18.6952 19.7997 18.4029 19.6784 18.1873 19.4628L18.0458 19.6042C18.2989 19.8573 18.642 19.9996 18.9999 20L19.0001 19.8ZM19.6389 19.6062C19.4498 19.7326 19.2274 19.8 19 19.8V20C19.267 20 19.528 19.9208 19.75 19.7725L19.6389 19.6062ZM20.0625 19.0901C19.9754 19.3002 19.828 19.4799 19.6389 19.6062L19.75 19.7725C19.972 19.6242 20.1451 19.4133 20.2472 19.1666L20.0625 19.0901ZM20.1279 18.4257C20.1723 18.6488 20.1495 18.88 20.0625 19.0901L20.2472 19.1666C20.3494 18.92 20.3762 18.6485 20.3241 18.3867L20.1279 18.4257ZM19.8132 17.8369C19.974 17.9977 20.0835 18.2026 20.1279 18.4257L20.3241 18.3867C20.272 18.1248 20.1434 17.8842 19.9546 17.6954L19.8132 17.8369ZM19.2244 17.5221C19.4474 17.5665 19.6523 17.676 19.8132 17.8369L19.9546 17.6954C19.7658 17.5066 19.5252 17.3781 19.2634 17.326L19.2244 17.5221ZM18.5599 17.5876C18.7701 17.5005 19.0013 17.4777 19.2244 17.5221L19.2634 17.326C19.0015 17.2739 18.7301 17.3006 18.4834 17.4028L18.5599 17.5876ZM18.0438 18.0111C18.1702 17.822 18.3498 17.6746 18.5599 17.5876L18.4834 17.4028C18.2367 17.505 18.0259 17.678 17.8775 17.9L18.0438 18.0111ZM26.7877 17.4555C27.0239 17.8091 27.15 18.2248 27.15 18.65H27.35C27.35 18.1852 27.2122 17.7309 26.954 17.3444L26.7877 17.4555ZM25.8228 16.6637C26.2156 16.8264 26.5514 17.102 26.7877 17.4555L26.954 17.3444C26.6957 16.958 26.3287 16.6568 25.8993 16.4789L25.8228 16.6637ZM24.5806 16.5413C24.9976 16.4584 25.4299 16.501 25.8228 16.6637L25.8993 16.4789C25.4699 16.301 24.9974 16.2545 24.5415 16.3452L24.5806 16.5413ZM23.4797 17.1297C23.7804 16.8291 24.1635 16.6243 24.5806 16.5413L24.5415 16.3452C24.0857 16.4359 23.667 16.6597 23.3383 16.9883L23.4797 17.1297ZM22.8913 18.2306C22.9743 17.8135 23.179 17.4304 23.4797 17.1297L23.3383 16.9883C23.0096 17.317 22.7858 17.7357 22.6952 18.1916L22.8913 18.2306ZM23.0137 19.4728C22.8509 19.0799 22.8084 18.6476 22.8913 18.2306L22.6952 18.1916C22.6045 18.6474 22.651 19.1199 22.8289 19.5493L23.0137 19.4728ZM23.8055 20.4377C23.452 20.2014 23.1764 19.8657 23.0137 19.4728L22.8289 19.5493C23.0067 19.9787 23.308 20.3458 23.6944 20.604L23.8055 20.4377ZM25 20.8C24.5748 20.8 24.1591 20.6739 23.8055 20.4377L23.6944 20.604C24.0809 20.8622 24.5352 21 25 21V20.8ZM26.5196 20.1696C26.1165 20.5727 25.5699 20.7994 24.9999 20.8L25.0001 21C25.6231 20.9993 26.2204 20.7516 26.661 20.311L26.5196 20.1696ZM27.15 18.6499C27.1494 19.22 26.9227 19.7665 26.5196 20.1696L26.661 20.311C27.1015 19.8705 27.3493 19.2732 27.35 18.6501L27.15 18.6499ZM23.8775 17.9C23.7292 18.122 23.65 18.383 23.65 18.65H23.85C23.85 18.4226 23.9174 18.2002 24.0438 18.0111L23.8775 17.9ZM24.4834 17.4028C24.2367 17.505 24.0259 17.678 23.8775 17.9L24.0438 18.0111C24.1702 17.822 24.3498 17.6746 24.5599 17.5876L24.4834 17.4028ZM25.2634 17.326C25.0015 17.2739 24.7301 17.3006 24.4834 17.4028L24.5599 17.5876C24.7701 17.5005 25.0013 17.4777 25.2244 17.5221L25.2634 17.326ZM25.9546 17.6954C25.7658 17.5066 25.5252 17.3781 25.2634 17.326L25.2244 17.5221C25.4474 17.5665 25.6523 17.676 25.8132 17.8369L25.9546 17.6954ZM26.3241 18.3867C26.272 18.1248 26.1434 17.8842 25.9546 17.6954L25.8132 17.8369C25.974 17.9977 26.0835 18.2026 26.1279 18.4257L26.3241 18.3867ZM26.2472 19.1666C26.3494 18.92 26.3762 18.6485 26.3241 18.3867L26.1279 18.4257C26.1723 18.6488 26.1495 18.88 26.0625 19.0901L26.2472 19.1666ZM25.75 19.7725C25.972 19.6242 26.1451 19.4133 26.2472 19.1666L26.0625 19.0901C25.9754 19.3002 25.828 19.4799 25.6389 19.6062L25.75 19.7725ZM25 20C25.267 20 25.528 19.9208 25.75 19.7725L25.6389 19.6062C25.4498 19.7326 25.2274 19.8 25 19.8V20ZM24.0458 19.6042C24.2989 19.8573 24.642 19.9996 24.9999 20L25.0001 19.8C24.6952 19.7997 24.4029 19.6784 24.1873 19.4628L24.0458 19.6042ZM23.65 18.6501C23.6504 19.008 23.7928 19.3511 24.0458 19.6042L24.1873 19.4628C23.9716 19.2472 23.8504 18.9548 23.85 18.6499L23.65 18.6501ZM29.8407 24.094C30.1684 23.684 30.3478 23.1753 30.35 22.6504L30.15 22.6496C30.148 23.1294 29.984 23.5944 29.6844 23.9692L29.8407 24.094ZM31.0974 24.8739C30.7727 24.4313 30.3159 24.103 29.7929 23.9363L29.7322 24.1269C30.2149 24.2807 30.6364 24.5837 30.9361 24.9922L31.0974 24.8739ZM31.6 26.3997C31.598 25.8507 31.4221 25.3165 31.0974 24.8739L30.9361 24.9922C31.2358 25.4007 31.3982 25.8937 31.4 26.4004L31.6 26.3997ZM31.6 29.4V26.4H31.4V29.4H31.6ZM31.4243 29.8243C31.5368 29.7118 31.6 29.5592 31.6 29.4H31.4C31.4 29.5061 31.3579 29.6079 31.2828 29.6829L31.4243 29.8243ZM31 30C31.1591 30 31.3117 29.9368 31.4243 29.8243L31.2828 29.6829C31.2078 29.7579 31.1061 29.8 31 29.8V30ZM1 30H31V29.8H1V30ZM0.575736 29.8243C0.688258 29.9368 0.840871 30 1 30V29.8C0.893913 29.8 0.792172 29.7579 0.717158 29.6829L0.575736 29.8243ZM0.4 29.4C0.4 29.5592 0.463214 29.7118 0.575736 29.8243L0.717158 29.6829C0.642143 29.6079 0.6 29.5061 0.6 29.4H0.4ZM0.4 26.4V29.4H0.6V26.4H0.4ZM0.902637 24.8739C0.57793 25.3165 0.40195 25.8507 0.400001 26.3997L0.599999 26.4004C0.601799 25.8937 0.764216 25.4007 1.0639 24.9922L0.902637 24.8739ZM2.20709 23.9363C1.68405 24.103 1.22734 24.4313 0.902637 24.8739L1.0639 24.9922C1.36358 24.5837 1.78509 24.2807 2.26782 24.1269L2.20709 23.9363ZM1.65 22.6504C1.65215 23.1753 1.83165 23.684 2.15934 24.094L2.31557 23.9692C2.01604 23.5944 1.85197 23.1294 1.85 22.6496L1.65 22.6504ZM2.3383 20.9883C1.89759 21.429 1.65 22.0268 1.65 22.65H1.85C1.85 22.0798 2.07652 21.5329 2.47972 21.1297L2.3383 20.9883ZM4 20.3C3.37674 20.3 2.77901 20.5476 2.3383 20.9883L2.47972 21.1297C2.88292 20.7265 3.42978 20.5 4 20.5V20.3ZM5.6617 20.9883C5.22099 20.5476 4.62326 20.3 4 20.3V20.5C4.57022 20.5 5.11708 20.7265 5.52028 21.1297L5.6617 20.9883ZM6.35 22.65C6.35 22.0268 6.10241 21.429 5.6617 20.9883L5.52028 21.1297C5.92348 21.5329 6.15 22.0798 6.15 22.65H6.35ZM5.84066 24.094C6.16835 23.684 6.34785 23.1753 6.35 22.6504L6.15 22.6496C6.14803 23.1294 5.98396 23.5944 5.68443 23.9692L5.84066 24.094ZM7.08015 24.8557C6.7572 24.4229 6.3073 24.1015 5.79312 23.9364L5.73197 24.1268C6.20654 24.2792 6.62178 24.5758 6.91985 24.9753L7.08015 24.8557ZM8.20688 23.9364C7.6927 24.1015 7.2428 24.4229 6.91985 24.8557L7.08015 24.9753C7.37822 24.5758 7.79346 24.2792 8.26803 24.1268L8.20688 23.9364ZM7.65 22.6504C7.65215 23.1753 7.83165 23.684 8.15934 24.094L8.31557 23.9692C8.01604 23.5944 7.85197 23.1294 7.85 22.6496L7.65 22.6504ZM8.3383 20.9883C7.89759 21.429 7.65 22.0268 7.65 22.65H7.85C7.85 22.0798 8.07652 21.5329 8.47972 21.1297L8.3383 20.9883ZM10 20.3C9.37674 20.3 8.77901 20.5476 8.3383 20.9883L8.47972 21.1297C8.88292 20.7265 9.42978 20.5 10 20.5V20.3ZM11.6617 20.9883C11.221 20.5476 10.6233 20.3 10 20.3V20.5C10.5702 20.5 11.1171 20.7265 11.5203 21.1297L11.6617 20.9883ZM12.35 22.65C12.35 22.0268 12.1024 21.429 11.6617 20.9883L11.5203 21.1297C11.9235 21.5329 12.15 22.0798 12.15 22.65H12.35ZM11.8407 24.094C12.1684 23.684 12.3478 23.1753 12.35 22.6504L12.15 22.6496C12.148 23.1294 11.984 23.5944 11.6844 23.9692L11.8407 24.094ZM13.0801 24.8557C12.7572 24.4229 12.3073 24.1015 11.7931 23.9364L11.732 24.1268C12.2065 24.2792 12.6218 24.5758 12.9199 24.9753L13.0801 24.8557ZM14.2069 23.9364C13.6927 24.1015 13.2428 24.4229 12.9199 24.8557L13.0801 24.9753C13.3782 24.5758 13.7935 24.2792 14.268 24.1268L14.2069 23.9364ZM13.65 22.6504C13.6522 23.1753 13.8316 23.684 14.1593 24.094L14.3156 23.9692C14.016 23.5944 13.852 23.1294 13.85 22.6496L13.65 22.6504ZM14.3383 20.9883C13.8976 21.429 13.65 22.0268 13.65 22.65H13.85C13.85 22.0798 14.0765 21.5329 14.4797 21.1297L14.3383 20.9883ZM16 20.3C15.3767 20.3 14.779 20.5476 14.3383 20.9883L14.4797 21.1297C14.8829 20.7265 15.4298 20.5 16 20.5V20.3ZM17.6617 20.9883C17.221 20.5476 16.6233 20.3 16 20.3V20.5C16.5702 20.5 17.1171 20.7265 17.5203 21.1297L17.6617 20.9883ZM18.35 22.65C18.35 22.0268 18.1024 21.429 17.6617 20.9883L17.5203 21.1297C17.9235 21.5329 18.15 22.0798 18.15 22.65H18.35ZM17.8407 24.094C18.1684 23.684 18.3478 23.1753 18.35 22.6504L18.15 22.6496C18.148 23.1294 17.984 23.5944 17.6844 23.9692L17.8407 24.094ZM19.0801 24.8557C18.7572 24.4229 18.3073 24.1015 17.7931 23.9364L17.732 24.1268C18.2065 24.2792 18.6218 24.5758 18.9199 24.9753L19.0801 24.8557ZM20.2069 23.9364C19.6927 24.1015 19.2428 24.4229 18.9199 24.8557L19.0801 24.9753C19.3782 24.5758 19.7935 24.2792 20.268 24.1268L20.2069 23.9364ZM19.65 22.6504C19.6522 23.1753 19.8316 23.684 20.1593 24.094L20.3156 23.9692C20.016 23.5944 19.852 23.1294 19.85 22.6496L19.65 22.6504ZM20.3383 20.9883C19.8976 21.429 19.65 22.0268 19.65 22.65H19.85C19.85 22.0798 20.0765 21.5329 20.4797 21.1297L20.3383 20.9883ZM22 20.3C21.3767 20.3 20.779 20.5476 20.3383 20.9883L20.4797 21.1297C20.8829 20.7265 21.4298 20.5 22 20.5V20.3ZM23.6617 20.9883C23.221 20.5476 22.6233 20.3 22 20.3V20.5C22.5702 20.5 23.1171 20.7265 23.5203 21.1297L23.6617 20.9883ZM24.35 22.65C24.35 22.0268 24.1024 21.429 23.6617 20.9883L23.5203 21.1297C23.9235 21.5329 24.15 22.0798 24.15 22.65H24.35ZM23.8407 24.094C24.1684 23.684 24.3478 23.1753 24.35 22.6504L24.15 22.6496C24.148 23.1294 23.984 23.5944 23.6844 23.9692L23.8407 24.094ZM25.0801 24.8557C24.7572 24.4229 24.3073 24.1015 23.7931 23.9364L23.732 24.1268C24.2065 24.2792 24.6218 24.5758 24.9199 24.9753L25.0801 24.8557ZM26.2069 23.9364C25.6927 24.1015 25.2428 24.4229 24.9199 24.8557L25.0801 24.9753C25.3782 24.5758 25.7935 24.2792 26.268 24.1268L26.2069 23.9364ZM25.65 22.6504C25.6522 23.1753 25.8316 23.684 26.1593 24.094L26.3156 23.9692C26.016 23.5944 25.852 23.1294 25.85 22.6496L25.65 22.6504ZM26.3383 20.9883C25.8976 21.429 25.65 22.0268 25.65 22.65H25.85C25.85 22.0798 26.0765 21.5329 26.4797 21.1297L26.3383 20.9883ZM28 20.3C27.3767 20.3 26.779 20.5476 26.3383 20.9883L26.4797 21.1297C26.8829 20.7265 27.4298 20.5 28 20.5V20.3ZM29.6617 20.9883C29.221 20.5476 28.6233 20.3 28 20.3V20.5C28.5702 20.5 29.1171 20.7265 29.5203 21.1297L29.6617 20.9883ZM30.35 22.65C30.35 22.0268 30.1024 21.429 29.6617 20.9883L29.5203 21.1297C29.9235 21.5329 30.15 22.0798 30.15 22.65H30.35ZM4 21.5C4.22745 21.5 4.44979 21.5675 4.63891 21.6938L4.75002 21.5275C4.52801 21.3792 4.267 21.3 4 21.3V21.5ZM3.18726 21.8373C3.40287 21.6217 3.6952 21.5004 4.00012 21.5L3.99988 21.3C3.642 21.3004 3.2989 21.4428 3.04584 21.6959L3.18726 21.8373ZM2.85 22.6501C2.85036 22.3452 2.97165 22.0529 3.18726 21.8373L3.04584 21.6959C2.79277 21.9489 2.65042 22.292 2.65 22.6499L2.85 22.6501ZM3.04381 23.2889C2.91745 23.0998 2.85 22.8775 2.85 22.65H2.65C2.65 22.917 2.72918 23.178 2.87752 23.4L3.04381 23.2889ZM3.55991 23.7125C3.34978 23.6254 3.17017 23.478 3.04381 23.2889L2.87752 23.4C3.02586 23.6221 3.2367 23.7951 3.48338 23.8973L3.55991 23.7125ZM4.22435 23.7779C4.00128 23.8223 3.77005 23.7995 3.55991 23.7125L3.48338 23.8973C3.73006 23.9994 4.0015 24.0262 4.26337 23.9741L4.22435 23.7779ZM4.81317 23.4632C4.65234 23.624 4.44743 23.7336 4.22435 23.7779L4.26337 23.9741C4.52525 23.922 4.76579 23.7934 4.95459 23.6046L4.81317 23.4632ZM5.1279 22.8744C5.08353 23.0975 4.974 23.3024 4.81317 23.4632L4.95459 23.6046C5.1434 23.4158 5.27197 23.1753 5.32406 22.9134L5.1279 22.8744ZM5.06246 22.2099C5.1495 22.4201 5.17228 22.6513 5.1279 22.8744L5.32406 22.9134C5.37615 22.6515 5.34942 22.3801 5.24724 22.1334L5.06246 22.2099ZM4.63891 21.6938C4.82802 21.8202 4.97542 21.9998 5.06246 22.2099L5.24724 22.1334C5.14506 21.8867 4.97203 21.6759 4.75002 21.5275L4.63891 21.6938ZM1.6 28.9V26.4H1.4V28.9H1.6ZM6.5 28.8H1.5V29H6.5V28.8ZM6.4 26.4V28.9H6.6V26.4H6.4ZM5.98947 25.4106C6.25195 25.673 6.3996 26.0289 6.4 26.4001L6.6 26.3999C6.59954 25.9757 6.43083 25.5691 6.13089 25.2691L5.98947 25.4106ZM4.99989 25C5.3711 25.0004 5.72699 25.1481 5.98947 25.4106L6.13089 25.2691C5.83095 24.9692 5.42428 24.8005 5.00011 24.8L4.99989 25ZM3 25H5V24.8H3V25ZM2.01053 25.4106C2.27301 25.1481 2.6289 25.0004 3.00011 25L2.99989 24.8C2.57572 24.8005 2.16905 24.9692 1.86911 25.2691L2.01053 25.4106ZM1.6 26.4001C1.60041 26.0289 1.74805 25.673 2.01053 25.4106L1.86911 25.2691C1.56917 25.5691 1.40046 25.9757 1.4 26.3999L1.6 26.4001ZM10 21.5C10.2274 21.5 10.4498 21.5675 10.6389 21.6938L10.75 21.5275C10.528 21.3792 10.267 21.3 10 21.3V21.5ZM9.18726 21.8373C9.40287 21.6217 9.6952 21.5004 10.0001 21.5L9.99988 21.3C9.642 21.3004 9.2989 21.4428 9.04584 21.6959L9.18726 21.8373ZM8.85 22.6501C8.85036 22.3452 8.97165 22.0529 9.18726 21.8373L9.04584 21.6959C8.79278 21.9489 8.65042 22.292 8.65 22.6499L8.85 22.6501ZM9.04381 23.2889C8.91745 23.0998 8.85 22.8775 8.85 22.65H8.65C8.65 22.917 8.72918 23.178 8.87752 23.4L9.04381 23.2889ZM9.55991 23.7125C9.34978 23.6254 9.17017 23.478 9.04381 23.2889L8.87752 23.4C9.02586 23.6221 9.2367 23.7951 9.48338 23.8973L9.55991 23.7125ZM10.2244 23.7779C10.0013 23.8223 9.77005 23.7995 9.55991 23.7125L9.48338 23.8973C9.73006 23.9994 10.0015 24.0262 10.2634 23.9741L10.2244 23.7779ZM10.8132 23.4632C10.6523 23.624 10.4474 23.7336 10.2244 23.7779L10.2634 23.9741C10.5252 23.922 10.7658 23.7934 10.9546 23.6046L10.8132 23.4632ZM11.1279 22.8744C11.0835 23.0975 10.974 23.3024 10.8132 23.4632L10.9546 23.6046C11.1434 23.4158 11.272 23.1753 11.3241 22.9134L11.1279 22.8744ZM11.0625 22.2099C11.1495 22.4201 11.1723 22.6513 11.1279 22.8744L11.3241 22.9134C11.3762 22.6515 11.3494 22.3801 11.2472 22.1334L11.0625 22.2099ZM10.6389 21.6938C10.828 21.8202 10.9754 21.9998 11.0625 22.2099L11.2472 22.1334C11.1451 21.8867 10.972 21.6759 10.75 21.5275L10.6389 21.6938ZM7.6 28.9V26.4H7.4V28.9H7.6ZM12.5 28.8H7.5V29H12.5V28.8ZM12.4 26.4V28.9H12.6V26.4H12.4ZM11.9895 25.4106C12.252 25.673 12.3996 26.0289 12.4 26.4001L12.6 26.3999C12.5995 25.9757 12.4308 25.5691 12.1309 25.2691L11.9895 25.4106ZM10.9999 25C11.3711 25.0004 11.727 25.1481 11.9895 25.4106L12.1309 25.2691C11.831 24.9692 11.4243 24.8005 11.0001 24.8L10.9999 25ZM9 25H11V24.8H9V25ZM8.01053 25.4106C8.27301 25.1481 8.6289 25.0004 9.00011 25L8.99989 24.8C8.57572 24.8005 8.16905 24.9692 7.86911 25.2691L8.01053 25.4106ZM7.6 26.4001C7.6004 26.0289 7.74805 25.673 8.01053 25.4106L7.86911 25.2691C7.56917 25.5691 7.40046 25.9757 7.4 26.3999L7.6 26.4001ZM16 21.5C16.2274 21.5 16.4498 21.5675 16.6389 21.6938L16.75 21.5275C16.528 21.3792 16.267 21.3 16 21.3V21.5ZM15.1873 21.8373C15.4029 21.6217 15.6952 21.5004 16.0001 21.5L15.9999 21.3C15.642 21.3004 15.2989 21.4428 15.0458 21.6959L15.1873 21.8373ZM14.85 22.6501C14.8504 22.3452 14.9716 22.0529 15.1873 21.8373L15.0458 21.6959C14.7928 21.9489 14.6504 22.292 14.65 22.6499L14.85 22.6501ZM15.0438 23.2889C14.9174 23.0998 14.85 22.8775 14.85 22.65H14.65C14.65 22.917 14.7292 23.178 14.8775 23.4L15.0438 23.2889ZM15.5599 23.7125C15.3498 23.6254 15.1702 23.478 15.0438 23.2889L14.8775 23.4C15.0259 23.6221 15.2367 23.7951 15.4834 23.8973L15.5599 23.7125ZM16.2244 23.7779C16.0013 23.8223 15.77 23.7995 15.5599 23.7125L15.4834 23.8973C15.7301 23.9994 16.0015 24.0262 16.2634 23.9741L16.2244 23.7779ZM16.8132 23.4632C16.6523 23.624 16.4474 23.7336 16.2244 23.7779L16.2634 23.9741C16.5252 23.922 16.7658 23.7934 16.9546 23.6046L16.8132 23.4632ZM17.1279 22.8744C17.0835 23.0975 16.974 23.3024 16.8132 23.4632L16.9546 23.6046C17.1434 23.4158 17.272 23.1753 17.3241 22.9134L17.1279 22.8744ZM17.0625 22.2099C17.1495 22.4201 17.1723 22.6513 17.1279 22.8744L17.3241 22.9134C17.3761 22.6515 17.3494 22.3801 17.2472 22.1334L17.0625 22.2099ZM16.6389 21.6938C16.828 21.8202 16.9754 21.9998 17.0625 22.2099L17.2472 22.1334C17.1451 21.8867 16.972 21.6759 16.75 21.5275L16.6389 21.6938ZM13.6 28.9V26.4H13.4V28.9H13.6ZM18.5 28.8H13.5V29H18.5V28.8ZM18.4 26.4V28.9H18.6V26.4H18.4ZM17.9895 25.4106C18.252 25.673 18.3996 26.0289 18.4 26.4001L18.6 26.3999C18.5995 25.9757 18.4308 25.5691 18.1309 25.2691L17.9895 25.4106ZM16.9999 25C17.3711 25.0004 17.727 25.1481 17.9895 25.4106L18.1309 25.2691C17.831 24.9692 17.4243 24.8005 17.0001 24.8L16.9999 25ZM15 25H17V24.8H15V25ZM14.0105 25.4106C14.273 25.1481 14.6289 25.0004 15.0001 25L14.9999 24.8C14.5757 24.8005 14.169 24.9692 13.8691 25.2691L14.0105 25.4106ZM13.6 26.4001C13.6004 26.0289 13.748 25.673 14.0105 25.4106L13.8691 25.2691C13.5692 25.5691 13.4005 25.9757 13.4 26.3999L13.6 26.4001ZM22 21.5C22.2274 21.5 22.4498 21.5675 22.6389 21.6938L22.75 21.5275C22.528 21.3792 22.267 21.3 22 21.3V21.5ZM21.1873 21.8373C21.4029 21.6217 21.6952 21.5004 22.0001 21.5L21.9999 21.3C21.642 21.3004 21.2989 21.4428 21.0458 21.6959L21.1873 21.8373ZM20.85 22.6501C20.8504 22.3452 20.9716 22.0529 21.1873 21.8373L21.0458 21.6959C20.7928 21.9489 20.6504 22.292 20.65 22.6499L20.85 22.6501ZM21.0438 23.2889C20.9174 23.0998 20.85 22.8775 20.85 22.65H20.65C20.65 22.917 20.7292 23.178 20.8775 23.4L21.0438 23.2889ZM21.5599 23.7125C21.3498 23.6254 21.1702 23.478 21.0438 23.2889L20.8775 23.4C21.0259 23.6221 21.2367 23.7951 21.4834 23.8973L21.5599 23.7125ZM22.2244 23.7779C22.0013 23.8223 21.77 23.7995 21.5599 23.7125L21.4834 23.8973C21.7301 23.9994 22.0015 24.0262 22.2634 23.9741L22.2244 23.7779ZM22.8132 23.4632C22.6523 23.624 22.4474 23.7336 22.2244 23.7779L22.2634 23.9741C22.5252 23.922 22.7658 23.7934 22.9546 23.6046L22.8132 23.4632ZM23.1279 22.8744C23.0835 23.0975 22.974 23.3024 22.8132 23.4632L22.9546 23.6046C23.1434 23.4158 23.272 23.1753 23.3241 22.9134L23.1279 22.8744ZM23.0625 22.2099C23.1495 22.4201 23.1723 22.6513 23.1279 22.8744L23.3241 22.9134C23.3761 22.6515 23.3494 22.3801 23.2472 22.1334L23.0625 22.2099ZM22.6389 21.6938C22.828 21.8202 22.9754 21.9998 23.0625 22.2099L23.2472 22.1334C23.1451 21.8867 22.972 21.6759 22.75 21.5275L22.6389 21.6938ZM19.6 28.9V26.4H19.4V28.9H19.6ZM24.5 28.8H19.5V29H24.5V28.8ZM24.4 26.4V28.9H24.6V26.4H24.4ZM23.9895 25.4106C24.252 25.673 24.3996 26.0289 24.4 26.4001L24.6 26.3999C24.5995 25.9757 24.4308 25.5691 24.1309 25.2691L23.9895 25.4106ZM22.9999 25C23.3711 25.0004 23.727 25.1481 23.9895 25.4106L24.1309 25.2691C23.831 24.9692 23.4243 24.8005 23.0001 24.8L22.9999 25ZM21 25H23V24.8H21V25ZM20.0105 25.4106C20.273 25.1481 20.6289 25.0004 21.0001 25L20.9999 24.8C20.5757 24.8005 20.169 24.9692 19.8691 25.2691L20.0105 25.4106ZM19.6 26.4001C19.6004 26.0289 19.748 25.673 20.0105 25.4106L19.8691 25.2691C19.5692 25.5691 19.4005 25.9757 19.4 26.3999L19.6 26.4001ZM28 21.5C28.2274 21.5 28.4498 21.5675 28.6389 21.6938L28.75 21.5275C28.528 21.3792 28.267 21.3 28 21.3V21.5ZM27.1873 21.8373C27.4029 21.6217 27.6952 21.5004 28.0001 21.5L27.9999 21.3C27.642 21.3004 27.2989 21.4428 27.0458 21.6959L27.1873 21.8373ZM26.85 22.6501C26.8504 22.3452 26.9716 22.0529 27.1873 21.8373L27.0458 21.6959C26.7928 21.9489 26.6504 22.292 26.65 22.6499L26.85 22.6501ZM27.0438 23.2889C26.9174 23.0998 26.85 22.8775 26.85 22.65H26.65C26.65 22.917 26.7292 23.178 26.8775 23.4L27.0438 23.2889ZM27.5599 23.7125C27.3498 23.6254 27.1702 23.478 27.0438 23.2889L26.8775 23.4C27.0259 23.6221 27.2367 23.7951 27.4834 23.8973L27.5599 23.7125ZM28.2244 23.7779C28.0013 23.8223 27.77 23.7995 27.5599 23.7125L27.4834 23.8973C27.7301 23.9994 28.0015 24.0262 28.2634 23.9741L28.2244 23.7779ZM28.8132 23.4632C28.6523 23.624 28.4474 23.7336 28.2244 23.7779L28.2634 23.9741C28.5252 23.922 28.7658 23.7934 28.9546 23.6046L28.8132 23.4632ZM29.1279 22.8744C29.0835 23.0975 28.974 23.3024 28.8132 23.4632L28.9546 23.6046C29.1434 23.4158 29.272 23.1753 29.3241 22.9134L29.1279 22.8744ZM29.0625 22.2099C29.1495 22.4201 29.1723 22.6513 29.1279 22.8744L29.3241 22.9134C29.3761 22.6515 29.3494 22.3801 29.2472 22.1334L29.0625 22.2099ZM28.6389 21.6938C28.828 21.8202 28.9754 21.9998 29.0625 22.2099L29.2472 22.1334C29.1451 21.8867 28.972 21.6759 28.75 21.5275L28.6389 21.6938ZM25.6 28.9V26.4H25.4V28.9H25.6ZM30.5 28.8H25.5V29H30.5V28.8ZM30.4 26.4V28.9H30.6V26.4H30.4ZM29.9895 25.4106C30.252 25.673 30.3996 26.0289 30.4 26.4001L30.6 26.3999C30.5995 25.9757 30.4308 25.5691 30.1309 25.2691L29.9895 25.4106ZM28.9999 25C29.3711 25.0004 29.727 25.1481 29.9895 25.4106L30.1309 25.2691C29.831 24.9692 29.4243 24.8005 29.0001 24.8L28.9999 25ZM27 25H29V24.8H27V25ZM26.0105 25.4106C26.273 25.1481 26.6289 25.0004 27.0001 25L26.9999 24.8C26.5757 24.8005 26.169 24.9692 25.8691 25.2691L26.0105 25.4106ZM25.6 26.4001C25.6004 26.0289 25.748 25.673 26.0105 25.4106L25.8691 25.2691C25.5692 25.5691 25.4005 25.9757 25.4 26.3999L25.6 26.4001ZM18.6 5.80005C18.6 6.13142 18.8686 6.40005 19.2 6.40005V6.20005C18.9791 6.20005 18.8 6.02096 18.8 5.80005H18.6ZM19.2 5.20005C18.8686 5.20005 18.6 5.46868 18.6 5.80005H18.8C18.8 5.57913 18.9791 5.40005 19.2 5.40005V5.20005ZM19.8 5.80005C19.8 5.46868 19.5314 5.20005 19.2 5.20005V5.40005C19.4209 5.40005 19.6 5.57913 19.6 5.80005H19.8ZM19.2 6.40005C19.5314 6.40005 19.8 6.13142 19.8 5.80005H19.6C19.6 6.02096 19.4209 6.20005 19.2 6.20005V6.40005ZM21.2 5.40005H25.2V5.20005H21.2V5.40005ZM20.8 5.80005C20.8 5.57913 20.9791 5.40005 21.2 5.40005V5.20005C20.8686 5.20005 20.6 5.46868 20.6 5.80005H20.8ZM21.2 6.20005C20.9791 6.20005 20.8 6.02096 20.8 5.80005H20.6C20.6 6.13142 20.8686 6.40005 21.2 6.40005V6.20005ZM25.2 6.20005H21.2V6.40005H25.2V6.20005ZM25.6 5.80005C25.6 6.02096 25.4209 6.20005 25.2 6.20005V6.40005C25.5314 6.40005 25.8 6.13142 25.8 5.80005H25.6ZM25.2 5.40005C25.4209 5.40005 25.6 5.57913 25.6 5.80005H25.8C25.8 5.46868 25.5314 5.20005 25.2 5.20005V5.40005ZM18.6 7.80005C18.6 8.13142 18.8686 8.40005 19.2 8.40005V8.20005C18.9791 8.20005 18.8 8.02096 18.8 7.80005H18.6ZM19.2 7.20005C18.8686 7.20005 18.6 7.46868 18.6 7.80005H18.8C18.8 7.57913 18.9791 7.40005 19.2 7.40005V7.20005ZM19.8 7.80005C19.8 7.46868 19.5314 7.20005 19.2 7.20005V7.40005C19.4209 7.40005 19.6 7.57913 19.6 7.80005H19.8ZM19.2 8.40005C19.5314 8.40005 19.8 8.13142 19.8 7.80005H19.6C19.6 8.02096 19.4209 8.20005 19.2 8.20005V8.40005ZM21.2 7.40005H25.2V7.20005H21.2V7.40005ZM20.8 7.80005C20.8 7.57913 20.9791 7.40005 21.2 7.40005V7.20005C20.8686 7.20005 20.6 7.46868 20.6 7.80005H20.8ZM21.2 8.20005C20.9791 8.20005 20.8 8.02096 20.8 7.80005H20.6C20.6 8.13142 20.8686 8.40005 21.2 8.40005V8.20005ZM25.2 8.20005H21.2V8.40005H25.2V8.20005ZM25.6 7.80005C25.6 8.02096 25.4209 8.20005 25.2 8.20005V8.40005C25.5314 8.40005 25.8 8.13142 25.8 7.80005H25.6ZM25.2 7.40005C25.4209 7.40005 25.6 7.57913 25.6 7.80005H25.8C25.8 7.46868 25.5314 7.20005 25.2 7.20005V7.40005ZM18.6 9.80005C18.6 10.1314 18.8686 10.4 19.2 10.4V10.2C18.9791 10.2 18.8 10.021 18.8 9.80005H18.6ZM19.2 9.20005C18.8686 9.20005 18.6 9.46868 18.6 9.80005H18.8C18.8 9.57913 18.9791 9.40005 19.2 9.40005V9.20005ZM19.8 9.80005C19.8 9.46868 19.5314 9.20005 19.2 9.20005V9.40005C19.4209 9.40005 19.6 9.57913 19.6 9.80005H19.8ZM19.2 10.4C19.5314 10.4 19.8 10.1314 19.8 9.80005H19.6C19.6 10.021 19.4209 10.2 19.2 10.2V10.4ZM21.2 9.40005H25.2V9.20005H21.2V9.40005ZM20.8 9.80005C20.8 9.57913 20.9791 9.40005 21.2 9.40005V9.20005C20.8686 9.20005 20.6 9.46868 20.6 9.80005H20.8ZM21.2 10.2C20.9791 10.2 20.8 10.021 20.8 9.80005H20.6C20.6 10.1314 20.8686 10.4 21.2 10.4V10.2ZM25.2 10.2H21.2V10.4H25.2V10.2ZM25.6 9.80005C25.6 10.021 25.4209 10.2 25.2 10.2V10.4C25.5314 10.4 25.8 10.1314 25.8 9.80005H25.6ZM25.2 9.40005C25.4209 9.40005 25.6 9.57913 25.6 9.80005H25.8C25.8 9.46868 25.5314 9.20005 25.2 9.20005V9.40005Z" fill="#4F4F4F"/>
</svg>
