<svg width="32" height="30" viewBox="0 0 32 30" fill="none" xmlns="http://www.w3.org/2000/svg">
<path d="M14.206 5.73938H9.59996C9.30905 5.73938 9.11511 5.93332 9.11511 6.22423V10.6363C9.11511 10.9273 9.30905 11.1212 9.59996 11.1212H14.206C14.4969 11.1212 14.6909 10.9273 14.6909 10.6363V6.22423C14.6909 5.93332 14.4969 5.73938 14.206 5.73938ZM13.7212 10.1515H10.0848V6.70908H13.7212V10.1515Z" fill="#4F4F4F" stroke="#4F4F4F" stroke-width="0.3"/>
<path d="M14.206 13.1091H9.59996C9.30905 13.1091 9.11511 13.3031 9.11511 13.594V18.0061C9.11511 18.297 9.30905 18.4909 9.59996 18.4909H14.206C14.4969 18.4909 14.6909 18.297 14.6909 18.0061V13.594C14.6909 13.3031 14.4969 13.1091 14.206 13.1091ZM13.7212 17.4728H10.0848V14.0303H13.7212V17.4728Z" fill="#4F4F4F" stroke="#4F4F4F" stroke-width="0.3"/>
<path d="M14.206 20.4303H9.59996C9.30905 20.4303 9.11511 20.6242 9.11511 20.9151V25.3273C9.11511 25.6182 9.30905 25.8121 9.59996 25.8121H14.206C14.4969 25.8121 14.6909 25.6182 14.6909 25.3273V20.9151C14.6909 20.6727 14.4969 20.4303 14.206 20.4303ZM13.7212 24.8424H10.0848V21.4H13.7212V24.8424Z" fill="#4F4F4F" stroke="#4F4F4F" stroke-width="0.3"/>
<path d="M11.2 9.52124C11.297 9.61821 11.4424 9.6667 11.5394 9.6667C11.6364 9.6667 11.7818 9.61821 11.8788 9.52124L13.3818 8.01821C13.5758 7.82427 13.5758 7.53336 13.3818 7.33942C13.1879 7.14548 12.897 7.14548 12.703 7.33942L11.5394 8.50306L11.1515 8.0667C10.9576 7.87276 10.6667 7.87276 10.4727 8.0667C10.2788 8.26064 10.2788 8.55155 10.4727 8.74548L11.2 9.52124Z" fill="#4F4F4F" stroke="#4F4F4F" stroke-width="0.3"/>
<path d="M11.2 16.891C11.297 16.988 11.4424 17.0364 11.5394 17.0364C11.6364 17.0364 11.7818 16.988 11.8788 16.891L13.3818 15.388C13.5758 15.194 13.5758 14.9031 13.3818 14.7092C13.1879 14.5152 12.897 14.5152 12.703 14.7092L11.5394 15.8728L11.1515 15.4364C10.9576 15.2425 10.6667 15.2425 10.4727 15.4364C10.2788 15.6304 10.2788 15.9213 10.4727 16.1152L11.2 16.891Z" fill="#4F4F4F" stroke="#4F4F4F" stroke-width="0.3"/>
<path d="M11.2 24.2122C11.297 24.3091 11.3939 24.3576 11.5394 24.3576C11.6848 24.3576 11.7818 24.3091 11.8788 24.2122L13.3818 22.7091C13.5758 22.5152 13.5758 22.2243 13.3818 22.0303C13.1879 21.8364 12.897 21.8364 12.703 22.0303L11.5394 23.194L11.1515 22.7576C10.9576 22.5637 10.6667 22.5637 10.4727 22.7576C10.2788 22.9516 10.2788 23.2425 10.4727 23.4364L11.2 24.2122Z" fill="#4F4F4F" stroke="#4F4F4F" stroke-width="0.3"/>
<path d="M16.2424 7.43637H24.097C24.3879 7.43637 24.5818 7.24243 24.5818 6.95152C24.5818 6.66061 24.3879 6.46667 24.097 6.46667H16.2424C15.9515 6.46667 15.7576 6.66061 15.7576 6.95152C15.7576 7.24243 15.9515 7.43637 16.2424 7.43637Z" fill="#4F4F4F" stroke="#4F4F4F" stroke-width="0.3"/>
<path d="M16.2424 10.394H24.097C24.3879 10.394 24.5818 10.2001 24.5818 9.90916C24.5818 9.61826 24.3879 9.42432 24.097 9.42432H16.2424C15.9515 9.42432 15.7576 9.61826 15.7576 9.90916C15.7576 10.2001 15.9515 10.394 16.2424 10.394Z" fill="#4F4F4F" stroke="#4F4F4F" stroke-width="0.3"/>
<path d="M24.097 24.1152H16.2424C15.9515 24.1152 15.7576 24.3092 15.7576 24.6001C15.7576 24.891 15.9515 25.0849 16.2424 25.0849H24.097C24.3879 25.0849 24.5818 24.891 24.5818 24.6001C24.5818 24.3092 24.3394 24.1152 24.097 24.1152Z" fill="#4F4F4F" stroke="#4F4F4F" stroke-width="0.3"/>
<path d="M0.969712 23.5818C0.678803 23.5818 0.484863 23.7758 0.484863 24.0667C0.484863 24.3576 0.678803 24.5515 0.969712 24.5515H2.2788V27.3152C2.2788 28.5273 3.2485 29.497 4.46062 29.497H25.9394C27.1515 29.497 28.1212 28.5273 28.1212 27.3152V15.6788L30.6909 13.1091C31.7576 12.0424 31.8546 10.3455 30.8364 9.37578C30.1091 8.64851 29.0424 8.50305 28.1212 8.89093V2.68487C28.1212 1.47275 27.1515 0.503052 25.9394 0.503052H4.46062C3.2485 0.503052 2.2788 1.47275 2.2788 2.68487V5.44851H0.969712C0.678803 5.44851 0.484863 5.64245 0.484863 5.93336C0.484863 6.22426 0.678803 6.4182 0.969712 6.4182H2.2788V11.5091H0.969712C0.678803 11.5091 0.484863 11.7031 0.484863 11.994C0.484863 12.2849 0.678803 12.4788 0.969712 12.4788H2.2788V17.5697H0.969712C0.678803 17.5697 0.484863 17.7637 0.484863 18.0546C0.484863 18.3455 0.678803 18.5394 0.969712 18.5394H2.2788V23.6303H0.969712V23.5818ZM23.3212 19.1212L21.1394 16.9394L26.7637 11.3152L28.9455 13.497L23.3212 19.1212ZM22.4 19.6061L19.4909 20.6243L20.5576 17.8121L22.4 19.6061ZM27.7818 10.2485C28.4606 9.56972 29.5273 9.47275 30.1576 10.1031C30.7394 10.6849 30.6909 11.7515 30.0121 12.4788L29.5758 12.8182L27.394 10.6364L27.7818 10.2485ZM7.27274 1.47275H25.9394C26.6182 1.47275 27.1515 2.00608 27.1515 2.68487V9.52123C27.1515 9.52123 27.103 9.52123 27.103 9.56972L22.8364 13.8364H16.2424C15.9515 13.8364 15.7576 14.0303 15.7576 14.3212C15.7576 14.6121 15.9515 14.8061 16.2424 14.8061H21.8667L20.0727 16.6C20.0243 16.6485 19.9758 16.697 19.9758 16.794V16.8424H16.2424C15.9515 16.8424 15.7576 17.0364 15.7576 17.3273C15.7576 17.6182 15.9515 17.8121 16.2424 17.8121H19.5879L18.2788 21.2546H16.2424C15.9515 21.2546 15.7576 21.4485 15.7576 21.7394C15.7576 22.0303 15.9515 22.2243 16.2424 22.2243H24.097C24.3879 22.2243 24.5818 22.0303 24.5818 21.7394C24.5818 21.4485 24.3879 21.2546 24.097 21.2546H20.897L23.4667 20.3334C23.5152 20.3334 23.6121 20.2849 23.6606 20.2364L27.1515 16.7455V27.4121C27.1515 28.0909 26.6182 28.6243 25.9394 28.6243H7.27274V1.47275ZM3.2485 24.5515H4.55759C4.8485 24.5515 5.04244 24.3576 5.04244 24.0667C5.04244 23.7758 4.8485 23.5818 4.55759 23.5818H3.2485V18.4909H4.55759C4.8485 18.4909 5.04244 18.297 5.04244 18.0061C5.04244 17.7152 4.8485 17.5212 4.55759 17.5212H3.2485V12.4788H4.55759C4.8485 12.4788 5.04244 12.2849 5.04244 11.994C5.04244 11.7031 4.8485 11.5091 4.55759 11.5091H3.2485V6.4182H4.55759C4.8485 6.4182 5.04244 6.22426 5.04244 5.93336C5.04244 5.64245 4.8485 5.44851 4.55759 5.44851H3.2485V2.68487C3.2485 2.00608 3.78183 1.47275 4.46062 1.47275H6.30305V28.5273H4.46062C3.78183 28.5273 3.2485 27.994 3.2485 27.3152V24.5515Z" fill="#4F4F4F" stroke="#4F4F4F" stroke-width="0.3"/>
</svg>
