<svg width="32" height="29" viewBox="0 0 32 29" fill="none" xmlns="http://www.w3.org/2000/svg">
<path d="M22.5131 23.1406V21.2625C22.5131 20.7091 22.0645 20.2605 21.5111 20.2605H18.004C17.4506 20.2605 17.002 20.7091 17.002 21.2625V26.7736C17.002 27.327 17.4506 27.7756 18.004 27.7756H21.5111C22.0645 27.7756 22.5131 27.327 22.5131 26.7736V24.7694" stroke="#4F4F4F" stroke-width="1.2" stroke-miterlimit="10" stroke-linecap="round" stroke-linejoin="round"/>
<path d="M29.0262 20.2605H25.5192C24.9658 20.2605 24.5172 20.7091 24.5172 21.2625V26.7736C24.5172 27.327 24.9658 27.7756 25.5192 27.7756H29.0262C29.5796 27.7756 30.0282 27.327 30.0282 26.7736V21.2625C30.0282 20.7091 29.5796 20.2605 29.0262 20.2605Z" stroke="#4F4F4F" stroke-width="1.2" stroke-miterlimit="10" stroke-linecap="round" stroke-linejoin="round"/>
<path d="M6.48086 20.2605H2.9738C2.42043 20.2605 1.9718 20.7091 1.9718 21.2625V26.7736C1.9718 27.327 2.42043 27.7756 2.9738 27.7756H6.48086C7.03424 27.7756 7.48286 27.327 7.48286 26.7736V21.2625C7.48286 20.7091 7.03424 20.2605 6.48086 20.2605Z" stroke="#4F4F4F" stroke-width="1.2" stroke-miterlimit="10" stroke-linecap="round" stroke-linejoin="round"/>
<path d="M13.996 20.2605H10.4889C9.93556 20.2605 9.48694 20.7091 9.48694 21.2625V26.7736C9.48694 27.327 9.93556 27.7756 10.4889 27.7756H13.996C14.5494 27.7756 14.998 27.327 14.998 26.7736V21.2625C14.998 20.7091 14.5494 20.2605 13.996 20.2605Z" stroke="#4F4F4F" stroke-width="1.2" stroke-miterlimit="10" stroke-linecap="round" stroke-linejoin="round"/>
<path d="M13.495 20.2605V18.2564C13.495 17.7031 13.9436 17.2544 14.497 17.2544H17.5031C18.0564 17.2544 18.5051 17.7031 18.5051 18.2564V20.2605" stroke="#4F4F4F" stroke-width="1.2" stroke-miterlimit="10" stroke-linecap="round" stroke-linejoin="round"/>
<path d="M20.5091 20.2605V18.2564C20.5091 17.7031 20.9577 17.2544 21.5111 17.2544H24.5172C25.0705 17.2544 25.5192 17.7031 25.5192 18.2564V20.2605" stroke="#4F4F4F" stroke-width="1.2" stroke-miterlimit="10" stroke-linecap="round" stroke-linejoin="round"/>
<path d="M11.491 20.2605V18.2564C11.491 17.7031 11.0423 17.2544 10.4889 17.2544H7.48283C6.92946 17.2544 6.48083 17.7031 6.48083 18.2564V20.2605" stroke="#4F4F4F" stroke-width="1.2" stroke-miterlimit="10" stroke-linecap="round" stroke-linejoin="round"/>
<path d="M27.5232 20.2605V18.2564C27.5232 17.7031 27.9718 17.2544 28.5252 17.2544H31.5313" stroke="#4F4F4F" stroke-width="1.2" stroke-miterlimit="10" stroke-linecap="round" stroke-linejoin="round"/>
<path d="M4.47681 20.2605V18.2564C4.47681 17.7031 4.02819 17.2544 3.47481 17.2544H0.46875" stroke="#4F4F4F" stroke-width="1.2" stroke-miterlimit="10" stroke-linecap="round" stroke-linejoin="round"/>
<path d="M1.97174 25.7716H30.0282" stroke="#4F4F4F" stroke-width="1.2" stroke-miterlimit="10" stroke-linecap="round" stroke-linejoin="round"/>
<path d="M17.002 17.2544V15.7514C17.002 15.198 17.4506 14.7493 18.004 14.7493H20.5091C21.0625 14.7493 21.5111 15.198 21.5111 15.7514V17.2544" stroke="#4F4F4F" stroke-width="1.2" stroke-miterlimit="10" stroke-linecap="round" stroke-linejoin="round"/>
<path d="M23.5151 17.2544V15.7514C23.5151 15.198 23.9638 14.7493 24.5172 14.7493H27.0222C27.5756 14.7493 28.0243 15.198 28.0243 15.7514V17.2544" stroke="#4F4F4F" stroke-width="1.2" stroke-miterlimit="10" stroke-linecap="round" stroke-linejoin="round"/>
<path d="M30.0283 17.2544V15.7514C30.0283 15.198 30.4769 14.7493 31.0303 14.7493H31.5313" stroke="#4F4F4F" stroke-width="1.2" stroke-miterlimit="10" stroke-linecap="round" stroke-linejoin="round"/>
<path d="M1.97175 17.2544V15.7514C1.97175 15.198 1.52312 14.7493 0.96975 14.7493H0.46875" stroke="#4F4F4F" stroke-width="1.2" stroke-miterlimit="10" stroke-linecap="round" stroke-linejoin="round"/>
<path d="M10.489 17.2544V15.7514C10.489 15.198 10.9376 14.7493 11.491 14.7493H13.996C14.5494 14.7493 14.998 15.198 14.998 15.7514V17.2544" stroke="#4F4F4F" stroke-width="1.2" stroke-miterlimit="10" stroke-linecap="round" stroke-linejoin="round"/>
<path d="M3.97583 17.2544V15.7514C3.97583 15.198 4.42446 14.7493 4.97783 14.7493H7.48289C8.03627 14.7493 8.48496 15.198 8.48496 15.7514V17.2544" stroke="#4F4F4F" stroke-width="1.2" stroke-miterlimit="10" stroke-linecap="round" stroke-linejoin="round"/>
<path d="M3.20001 12.6V0.599976H28.8V12.6" stroke="#4F4F4F" stroke-width="1.2" stroke-miterlimit="10" stroke-linecap="round" stroke-linejoin="round"/>
<path d="M10.4 2.60044C9.70831 2.8589 8.96124 3 8.18202 3C6.1765 3 4.38456 2.06576 3.20001 0.6" stroke="#4F4F4F" stroke-width="1.2" stroke-miterlimit="10" stroke-linecap="round" stroke-linejoin="round"/>
<path d="M9.59998 0.599902C10.3911 3.36887 12.9536 5.3999 15.9999 5.3999C19.0463 5.3999 21.6088 3.36887 22.4 0.599902" stroke="#4F4F4F" stroke-width="1.2" stroke-miterlimit="10" stroke-linecap="round" stroke-linejoin="round"/>
<path d="M12 0.6C12.7118 2.01762 14.233 3 16 3C17.7671 3 19.2882 2.01762 20 0.6" stroke="#4F4F4F" stroke-width="1.2" stroke-miterlimit="10" stroke-linecap="round" stroke-linejoin="round"/>
<path d="M21.6 2.60044C22.2917 2.8589 23.0387 3 23.818 3C25.8235 3 27.6154 2.06576 28.8 0.6" stroke="#4F4F4F" stroke-width="1.2" stroke-miterlimit="10" stroke-linecap="round" stroke-linejoin="round"/>
<path d="M5.60001 3V8.14284C5.60001 8.86231 5.2444 9.53973 4.63998 9.97143L3.20001 11" stroke="#4F4F4F" stroke-width="1.2" stroke-miterlimit="10" stroke-linecap="round" stroke-linejoin="round"/>
<path d="M26.4 3V8.14284C26.4 8.86231 26.7556 9.53973 27.3601 9.97143L28.8 11" stroke="#4F4F4F" stroke-width="1.2" stroke-miterlimit="10" stroke-linecap="round" stroke-linejoin="round"/>
</svg>
