<svg width="33" height="32" viewBox="0 0 33 32" fill="none" xmlns="http://www.w3.org/2000/svg">
<g clip-path="url(#clip0_741_36677)">
<path fill-rule="evenodd" clip-rule="evenodd" d="M4.52607 7.16843L4.39736 6.91103C4.33806 6.79242 4.25832 6.68967 4.15814 6.60279C4.05796 6.5159 3.94497 6.45149 3.81916 6.40956C3.69336 6.36762 3.56432 6.35136 3.43205 6.36076C3.29977 6.37016 3.17433 6.40451 3.05572 6.46382C2.80873 6.58731 2.64158 6.78004 2.55425 7.04202C2.46693 7.30399 2.48502 7.55847 2.60851 7.80546L3.92944 10.4473C3.98874 10.5659 4.06848 10.6687 4.16866 10.7556C4.26884 10.8424 4.38183 10.9068 4.50764 10.9488C4.63344 10.9907 4.76248 11.007 4.89475 10.9976C5.02703 10.9882 5.15247 10.9538 5.27108 10.8945C5.28962 10.8853 5.30786 10.8754 5.32579 10.865C5.34372 10.8546 5.36131 10.8436 5.37856 10.8321L11.3786 6.83214C11.489 6.75858 11.581 6.66671 11.6548 6.55653C11.7286 6.44635 11.7785 6.32624 11.8045 6.19621C11.8305 6.06617 11.8306 5.93611 11.8049 5.80602C11.7792 5.67594 11.7295 5.55573 11.656 5.44539C11.5028 5.21562 11.2908 5.07366 11.02 5.01951C10.7493 4.96535 10.499 5.01486 10.2692 5.16804L8.32599 6.46349L5.21169 8.53968L4.52607 7.16843ZM15.8239 6.00009C15.5478 6.00009 15.3121 6.09772 15.1168 6.29298C14.9215 6.48824 14.8239 6.72395 14.8239 7.00009C14.8239 7.27623 14.9215 7.51193 15.1168 7.7072C15.3121 7.90246 15.5478 8.00009 15.8239 8.00009H29.8238C30.0999 8.00009 30.3356 7.90246 30.5309 7.7072C30.7262 7.51193 30.8238 7.27623 30.8238 7.00009C30.8238 6.72395 30.7262 6.48824 30.5309 6.29298C30.3356 6.09772 30.0999 6.00009 29.8238 6.00009H15.8239ZM4.54694 15.1684L4.41823 14.911C4.29474 14.6641 4.10201 14.4969 3.84003 14.4096C3.57806 14.3222 3.32358 14.3403 3.07659 14.4638C2.95798 14.5231 2.85524 14.6029 2.76835 14.7031C2.68147 14.8032 2.61706 14.9162 2.57512 15.042C2.53319 15.1678 2.51692 15.2969 2.52632 15.4291C2.53572 15.5614 2.57008 15.6869 2.62938 15.8055L3.9503 18.4473C4.0738 18.6943 4.26653 18.8615 4.5285 18.9488C4.79048 19.0361 5.04496 19.018 5.29195 18.8945C5.31049 18.8853 5.32873 18.8754 5.34666 18.865C5.36459 18.8546 5.38218 18.8436 5.39943 18.8321L11.3995 14.8322C11.6293 14.679 11.7712 14.467 11.8254 14.1962C11.8795 13.9254 11.83 13.6752 11.6768 13.4454C11.5237 13.2156 11.3117 13.0737 11.0409 13.0195C10.7701 12.9654 10.5199 13.0149 10.2901 13.168L5.23256 16.5397L4.54694 15.1684ZM15.8239 15.0001C15.5478 15.0001 15.3121 15.0977 15.1168 15.293C14.9215 15.4883 14.8239 15.724 14.8239 16.0001C14.8239 16.2762 14.9215 16.5119 15.1168 16.7072C15.3121 16.9025 15.5478 17.0001 15.8239 17.0001H29.8238C30.0999 17.0001 30.3356 16.9025 30.5309 16.7072C30.7262 16.5119 30.8238 16.2762 30.8238 16.0001C30.8238 15.724 30.7262 15.4883 30.5309 15.293C30.3356 15.0977 30.0999 15.0001 29.8238 15.0001H15.8239ZM4.54694 23.1684L4.41823 22.911C4.29474 22.664 4.10201 22.4969 3.84003 22.4096C3.57806 22.3222 3.32358 22.3403 3.07659 22.4638C2.95798 22.5231 2.85524 22.6029 2.76835 22.7031C2.68147 22.8032 2.61706 22.9162 2.57512 23.042C2.53319 23.1678 2.51692 23.2969 2.52632 23.4291C2.53572 23.5614 2.57008 23.6869 2.62938 23.8055L3.9503 26.4473C4.0738 26.6943 4.26653 26.8615 4.5285 26.9488C4.79048 27.0361 5.04496 27.018 5.29195 26.8945C5.31049 26.8853 5.32873 26.8754 5.34666 26.865C5.36459 26.8546 5.38218 26.8436 5.39943 26.8321L11.3995 22.8321C11.5098 22.7586 11.6019 22.6667 11.6757 22.5565C11.7495 22.4464 11.7994 22.3262 11.8254 22.1962C11.8514 22.0662 11.8515 21.9361 11.8258 21.806C11.8 21.6759 11.7503 21.5557 11.6768 21.4454C11.5237 21.2156 11.3117 21.0737 11.0409 21.0195C10.7701 20.9654 10.5199 21.0149 10.2901 21.168L8.34686 22.4635L5.23256 24.5397L4.54694 23.1684ZM15.8239 24.0001C15.5478 24.0001 15.3121 24.0977 15.1168 24.293C14.9215 24.4883 14.8239 24.724 14.8239 25.0001C14.8239 25.2762 14.9215 25.5119 15.1168 25.7072C15.3121 25.9025 15.5478 26.0001 15.8239 26.0001H29.8238C30.0999 26.0001 30.3356 25.9025 30.5309 25.7072C30.7262 25.5119 30.8238 25.2762 30.8238 25.0001C30.8238 24.724 30.7262 24.4883 30.5309 24.293C30.3356 24.0977 30.0999 24.0001 29.8238 24.0001H15.8239Z" fill="#D8AF5F" stroke="white" stroke-width="0.4"/>
</g>
<defs>
<clipPath id="clip0_741_36677">
<rect width="32" height="32" fill="white" transform="translate(0.5)"/>
</clipPath>
</defs>
</svg>
