<svg width="33" height="32" viewBox="0 0 33 32" fill="none" xmlns="http://www.w3.org/2000/svg">
<g clip-path="url(#clip0_741_36621)">
<path fill-rule="evenodd" clip-rule="evenodd" d="M13.9 22.5512L13.1573 22.7813V30.6401C15.6968 29.7839 19.3504 29.8925 21.639 31.1889C23.9277 29.8925 27.5812 29.784 30.1206 30.6401V22.7812L29.378 22.5511V29.0462C29.3781 29.1113 29.3604 29.1754 29.3267 29.2319C29.293 29.2885 29.2445 29.3356 29.186 29.3686C29.1274 29.4016 29.0609 29.4193 28.993 29.42C28.9251 29.4208 28.8582 29.4044 28.7989 29.3726C28.3388 29.1713 27.8558 29.0221 27.3597 28.9282C26.0923 28.6867 24.7846 28.7216 23.5331 29.0302C22.9449 29.1727 22.3863 29.4102 21.8813 29.7326C21.8125 29.7856 21.7269 29.8145 21.6387 29.8145C21.5505 29.8145 21.465 29.7856 21.3962 29.7326C20.8913 29.4104 20.3329 29.173 19.7449 29.0305C18.4935 28.7219 17.1858 28.6871 15.9184 28.9285C15.4223 29.0224 14.9393 29.1716 14.4793 29.373C14.42 29.4048 14.3531 29.4211 14.2852 29.4204C14.2173 29.4197 14.1507 29.4019 14.0922 29.3689C14.0337 29.3359 13.9851 29.2888 13.9514 29.2323C13.9178 29.1757 13.9001 29.1117 13.9002 29.0465V22.5515L13.9 22.5512ZM4.01255 9.25932H28.8511L16.4318 0.827516L4.01255 9.25932ZM22.0286 21.227C23.7519 20.1844 26.6523 20.0951 28.5986 20.8757V28.4879C26.5993 27.7942 23.9065 27.8646 22.0286 28.7824V21.227ZM24.1544 11.9775V13.3383H27.4369V11.9777L24.1544 11.9775ZM26.7173 14.0858H24.8889V19.6405C25.4978 19.5929 26.1101 19.6013 26.7173 19.6656V14.0861V14.0858ZM5.4192 11.9775V13.3383H8.7017V11.9777L5.4192 11.9775ZM7.9821 14.0858H6.15369V22.8295H7.9821V14.0861V14.0858ZM14.6793 20.8753C16.6083 20.1018 19.514 20.1769 21.2494 21.2265V28.7825C19.3712 27.8644 16.6791 27.794 14.6793 28.4879V20.8757V20.8753ZM14.7868 11.9774V13.3382H18.0693V11.9777L14.7868 11.9774ZM17.3497 14.0857H15.5213V19.8365C16.1213 19.7029 16.7339 19.6282 17.3497 19.6135V14.0861V14.0857ZM18.8489 11.9774V13.7117C18.8489 13.8109 18.8079 13.906 18.7347 13.9762C18.6616 14.0463 18.5624 14.0857 18.459 14.0857H18.1288V19.6235C19.3604 19.6873 20.6463 19.9881 21.6388 20.5802C22.3502 20.1557 23.2216 19.878 24.1093 19.7338V14.0861H23.7645C23.6611 14.0861 23.5619 14.0467 23.4888 13.9766C23.4157 13.9064 23.3746 13.8113 23.3746 13.7121V11.9778L18.8489 11.9774ZM18.4578 11.2297H29.6832V10.007H3.18051V11.2301L18.4578 11.2297ZM9.48844 24.9946V23.2034C9.48844 23.1041 9.44735 23.009 9.37423 22.9389C9.3011 22.8687 9.20192 22.8293 9.09851 22.8293H8.76097V14.0861H9.09142C9.19483 14.0861 9.29401 14.0467 9.36714 13.9766C9.44026 13.9064 9.48135 13.8113 9.48135 13.7121V11.9778H14.0074V13.7121C14.0074 13.8113 14.0485 13.9064 14.1216 13.9766C14.1948 14.0467 14.294 14.0861 14.3974 14.0861H14.7419V20.0542C14.5346 20.1241 14.3367 20.2011 14.1494 20.2849C14.076 20.3121 14.0129 20.36 13.9683 20.4222C13.9238 20.4845 13.9 20.5582 13.9 20.6338V21.7715C13.5728 21.8661 12.8959 22.064 12.6123 22.1826C12.543 22.2116 12.484 22.2594 12.4425 22.3201C12.4011 22.3808 12.379 22.4518 12.379 22.5243L12.378 24.9946H9.48844ZM5.42608 24.9946H8.70929V23.5771H5.42643V24.9946H5.42608ZM4.2677 26.9969H12.378V25.7422H4.26806V26.9969H4.2677ZM12.3777 29.9367H2.48991C2.38649 29.9367 2.28731 29.8973 2.21418 29.8272C2.14106 29.757 2.09998 29.6619 2.09998 29.5627V27.3707C2.09998 27.2715 2.14106 27.1763 2.21418 27.1062C2.28731 27.036 2.38649 26.9966 2.48991 26.9966H3.48876V25.3684C3.48876 25.2692 3.52985 25.1741 3.60297 25.1039C3.6761 25.0338 3.77528 24.9944 3.87869 24.9944H4.64714V23.2034C4.64714 23.1041 4.68822 23.009 4.76135 22.9389C4.83447 22.8687 4.93365 22.8293 5.03707 22.8293H5.37432V14.0861H5.02948C4.92607 14.0861 4.82689 14.0467 4.75376 13.9766C4.68063 13.9064 4.63955 13.8113 4.63955 13.7121V11.9778H2.79079C2.68737 11.9778 2.58819 11.9384 2.51507 11.8682C2.44194 11.7981 2.40086 11.7029 2.40086 11.6037V9.63318C2.40085 9.56688 2.41923 9.50178 2.45411 9.44455C2.489 9.38733 2.53913 9.34004 2.59937 9.30754L16.2081 0.0681729C16.2747 0.0230487 16.3544 -0.00079762 16.4359 2.03615e-05C16.5175 0.000838343 16.5967 0.026279 16.6623 0.0727296L30.2643 9.30775C30.3245 9.34025 30.3747 9.38754 30.4096 9.44477C30.4444 9.50199 30.4628 9.56709 30.4628 9.63338V11.6041C30.4628 11.7033 30.4217 11.7984 30.3486 11.8686C30.2755 11.9387 30.1763 11.9781 30.0729 11.9781H28.2165V13.7124C28.2165 13.8116 28.1755 13.9068 28.1023 13.9769C28.0292 14.0471 27.93 14.0865 27.8266 14.0865H27.4964V19.7827L27.5145 19.7863C28.0709 19.8915 28.6125 20.0588 29.1284 20.2847C29.2019 20.3119 29.265 20.3598 29.3096 20.4221C29.3541 20.4844 29.378 20.5581 29.378 20.6336V21.7714C29.8034 21.8945 30.2328 22.0253 30.6342 22.1698C30.7116 22.1947 30.7789 22.2424 30.8266 22.306C30.8743 22.3696 30.9 22.446 30.9 22.5243L30.8991 31.1869C30.8987 31.2486 30.8824 31.3093 30.8516 31.3635C30.8208 31.4177 30.7765 31.4638 30.7227 31.4976C30.6688 31.5315 30.6071 31.552 30.543 31.5574C30.4789 31.5628 30.4144 31.5529 30.3552 31.5286C28.4626 30.7363 25.8934 30.6505 23.8985 31.1286C23.0948 31.3212 22.3977 31.5985 21.8576 31.9356C21.7943 31.9768 21.7198 31.9992 21.6433 32C21.5668 32.0007 21.4918 31.9798 21.4277 31.9398C19.6628 30.8371 16.8243 30.6311 14.7118 31.0139C14.1072 31.1194 13.5165 31.2881 12.9502 31.5172C12.8909 31.5475 12.8243 31.5625 12.7571 31.5608C12.6899 31.5592 12.6242 31.5408 12.5666 31.5075C12.509 31.4742 12.4614 31.4272 12.4283 31.371C12.3953 31.3147 12.3781 31.2513 12.3782 31.1868V29.9367H12.3777ZM12.3777 27.7445H2.87955V29.1891H12.378V27.7445H12.3777ZM17.4846 5.13486C17.7639 5.4028 17.9208 5.76617 17.9208 6.14506C17.9208 6.52395 17.7639 6.88732 17.4846 7.15526C16.5488 8.05301 14.9423 7.41371 14.9423 6.14503C14.9423 4.87635 16.5491 4.23732 17.4846 5.13486ZM16.432 3.96888C16.8807 3.96888 17.3193 4.09652 17.6924 4.33566C18.0654 4.5748 18.3562 4.9147 18.5279 5.31238C18.6997 5.71005 18.7446 6.14765 18.657 6.56982C18.5695 6.99199 18.3534 7.37978 18.0362 7.68415C17.7189 7.98851 17.3146 8.19579 16.8745 8.27977C16.4345 8.36374 15.9783 8.32064 15.5638 8.15592C15.1492 7.9912 14.7949 7.71225 14.5456 7.35435C14.2963 6.99645 14.1633 6.57567 14.1633 6.14523C14.1633 5.56803 14.4023 5.01446 14.8278 4.60632C15.2532 4.19817 15.8303 3.96888 16.432 3.96888Z" fill="#4F4F4F" stroke="#4F4F4F" stroke-width="0.4"/>
</g>
<defs>
<clipPath id="clip0_741_36621">
<rect width="32" height="32" fill="white" transform="translate(0.5)"/>
</clipPath>
</defs>
</svg>
