<svg width="33" height="32" viewBox="0 0 33 32" fill="none" xmlns="http://www.w3.org/2000/svg">
<g clip-path="url(#clip0_741_36639)">
<path fill-rule="evenodd" clip-rule="evenodd" d="M32.2937 23.7542C32.1147 24.059 31.8335 24.2905 31.5 24.4078V29.0921C31.8335 29.2094 32.1147 29.4409 32.2937 29.7457C32.4728 30.0505 32.5382 30.4089 32.4783 30.7572C32.4184 31.1056 32.2371 31.4215 31.9665 31.649C31.6959 31.8765 31.3535 32.0008 31 32H5.75002C4.49624 32.0001 3.28382 31.5514 2.3321 30.7352C1.38038 29.919 0.752202 28.7891 0.561215 27.55C0.370228 26.3108 0.629041 25.0443 1.29083 23.9794C1.95263 22.9145 2.97369 22.1216 4.16932 21.7442C3.48109 21.2513 2.96718 20.5526 2.70168 19.7488C2.43618 18.945 2.43282 18.0777 2.69208 17.2719C2.95134 16.466 3.45983 15.7634 4.14421 15.2652C4.8286 14.767 5.65352 14.4991 6.50002 14.5H8.50002V8.33852L4.97495 6.92845C4.13682 6.59318 4.13682 5.40676 4.97496 5.0715L16.1286 0.609977C16.367 0.51461 16.633 0.514611 16.8714 0.609977L28.0251 5.0715C28.8632 5.40676 28.8632 6.59318 28.0251 6.92845L26.1981 7.65927L27.5 8.15522V10.3316C27.7925 10.4172 28.0573 10.5783 28.2679 10.7986C28.4786 11.0188 28.6276 11.2906 28.7001 11.5866C28.7726 11.8826 28.766 12.1925 28.681 12.4852C28.596 12.7778 28.4356 13.043 28.2158 13.2542L28.8962 17.3355C28.9979 17.9451 28.5278 18.5 27.9099 18.5H27.5V19.5921C27.7917 19.6948 28.0443 19.8853 28.2234 20.1374C28.4024 20.3895 28.4991 20.6908 28.5 21C28.4983 21.1707 28.4672 21.3399 28.4079 21.5H31C31.3535 21.4991 31.6959 21.6235 31.9665 21.8509C32.2371 22.0784 32.4184 22.3943 32.4783 22.7427C32.5382 23.0911 32.4728 23.4494 32.2937 23.7542ZM22 25.5H30.5V24.5H5.66142C5.06468 24.5 4.49239 24.737 4.07043 25.159C3.64847 25.5809 3.41142 26.1532 3.41142 26.75C3.41142 27.3467 3.64847 27.919 4.07043 28.341C4.49239 28.7629 5.06468 29 5.66142 29H30.5V26.5H22C21.7239 26.5 21.5 26.2761 21.5 26C21.5 25.7238 21.7239 25.5 22 25.5ZM6.50002 19.5H26.5V18.5H25.9235C25.3928 18.5 24.9891 18.0234 25.0764 17.5H20.5123C19.2034 17.8463 17.8538 18.0144 16.5 18C15.1462 18.0144 13.7966 17.8463 12.4878 17.5H6.50002C6.2348 17.5 5.98045 17.6053 5.79291 17.7929C5.60538 17.9804 5.50002 18.2348 5.50002 18.5C5.50002 18.7652 5.60538 19.0195 5.79291 19.2071C5.98045 19.3946 6.2348 19.5 6.50002 19.5ZM25.41 15.5H24.2245C23.8403 15.8901 23.4051 16.2265 22.9307 16.5H25.2433L25.41 15.5ZM26.0904 17.5H27.9095L27.28 13.7217C27.0953 13.7594 26.9048 13.7594 26.72 13.7217L26.0904 17.5ZM27.6236 12.4166C27.706 12.2933 27.75 12.1483 27.75 12C27.7498 11.8011 27.6707 11.6105 27.5301 11.4699C27.3895 11.3293 27.1989 11.2502 27 11.25C26.8517 11.25 26.7067 11.294 26.5833 11.3764C26.46 11.4588 26.3639 11.5759 26.3071 11.713C26.2503 11.85 26.2355 12.0008 26.2644 12.1463C26.2934 12.2918 26.3648 12.4254 26.4697 12.5303C26.5746 12.6352 26.7082 12.7066 26.8537 12.7356C26.9992 12.7645 27.15 12.7496 27.287 12.6929C27.4241 12.6361 27.5412 12.54 27.6236 12.4166ZM26.5 10.3318V8.84497L24.8274 8.20752L24.5 8.33852V14.5H25.5765L25.7842 13.2544C25.5644 13.0433 25.404 12.7781 25.319 12.4854C25.234 12.1927 25.2275 11.8829 25.3 11.5869C25.3725 11.2908 25.5215 11.0191 25.7321 10.7988C25.9427 10.5785 26.2075 10.4175 26.5 10.3318ZM27.6538 5.99997L16.5 1.53852L5.34622 5.99997L16.5 10.4614L23.4484 7.68227L16.7893 5.14529C16.5312 5.04697 16.4017 4.75806 16.5 4.49999C16.5983 4.2419 16.8872 4.11237 17.1453 4.21069L24.8188 7.13392L27.6538 5.99997ZM23.5 8.73852L16.8714 11.39C16.633 11.4853 16.367 11.4853 16.1286 11.39L9.50002 8.73852V14.811C9.94387 15.271 11.9175 17 16.5 17C21.0777 17 23.052 15.275 23.5 14.8105V8.73852ZM4.37966 16.3796C3.81724 16.942 3.50089 17.7046 3.50002 18.5C3.50089 19.2954 3.81724 20.0579 4.37966 20.6203C4.94208 21.1827 5.70464 21.4991 6.50002 21.5H27C27.1326 21.5 27.2598 21.4473 27.3536 21.3535C27.4473 21.2598 27.5 21.1326 27.5 21C27.5 20.8674 27.4473 20.7402 27.3536 20.6464C27.2598 20.5526 27.1326 20.5 27 20.5H6.50002C5.96959 20.5 5.46088 20.2893 5.08581 19.9142C4.71073 19.5391 4.50002 19.0304 4.50002 18.5C4.50002 17.9695 4.71073 17.4608 5.08581 17.0858C5.46088 16.7107 5.96959 16.5 6.50002 16.5H10.0694C9.59498 16.2265 9.15975 15.8901 8.77552 15.5H6.50002C5.70464 15.5008 4.94208 15.8172 4.37966 16.3796ZM5.75002 31H31C31.1326 31 31.2598 30.9473 31.3536 30.8535C31.4473 30.7598 31.5 30.6326 31.5 30.5C31.5 30.3674 31.4473 30.2402 31.3536 30.1464C31.2598 30.0526 31.1326 30 31 30H5.66142C4.79947 30 3.97282 29.6576 3.36332 29.0481C2.75383 28.4386 2.41142 27.6119 2.41142 26.75C2.41142 25.888 2.75383 25.0614 3.36332 24.4519C3.97282 23.8424 4.79947 23.5 5.66142 23.5H31C31.1326 23.5 31.2598 23.4473 31.3536 23.3535C31.4473 23.2598 31.5 23.1326 31.5 23C31.5 22.8674 31.4473 22.7402 31.3536 22.6464C31.2598 22.5526 31.1326 22.5 31 22.5H5.75002C4.62285 22.5 3.54185 22.9477 2.74482 23.7448C1.94779 24.5418 1.50002 25.6228 1.50002 26.75C1.50002 27.8771 1.94779 28.9581 2.74482 29.7552C3.54185 30.5522 4.62285 31 5.75002 31ZM6 27H19C19.2761 27 19.5 27.2239 19.5 27.5C19.5 27.7761 19.2761 28 19 28H6C5.72386 28 5.5 27.7761 5.5 27.5C5.5 27.2239 5.72386 27 6 27Z" fill="#4F4F4F"/>
<path d="M31.5 24.4078L31.4668 24.3135L31.4 24.337V24.4078H31.5ZM32.2937 23.7542L32.2075 23.7036V23.7036L32.2937 23.7542ZM31.5 29.0921H31.4V29.163L31.4668 29.1865L31.5 29.0921ZM32.2937 29.7457L32.2075 29.7964V29.7964L32.2937 29.7457ZM32.4783 30.7572L32.3797 30.7403L32.3797 30.7403L32.4783 30.7572ZM31.9665 31.649L32.0308 31.7256V31.7256L31.9665 31.649ZM31 32L31.0003 31.9H31V32ZM5.75002 32V31.9H5.75001L5.75002 32ZM2.3321 30.7352L2.267 30.8111L2.3321 30.7352ZM0.561215 27.55L0.462382 27.5652H0.462382L0.561215 27.55ZM1.29083 23.9794L1.2059 23.9266H1.2059L1.29083 23.9794ZM4.16932 21.7442L4.19942 21.8395L4.39016 21.7793L4.22754 21.6629L4.16932 21.7442ZM2.70168 19.7488L2.60673 19.7802L2.70168 19.7488ZM2.69208 17.2719L2.59689 17.2412L2.69208 17.2719ZM4.14421 15.2652L4.20306 15.346L4.14421 15.2652ZM6.50002 14.5L6.49991 14.6H6.50002V14.5ZM8.50002 14.5V14.6H8.60002V14.5H8.50002ZM8.50002 8.33852H8.60002V8.27081L8.53716 8.24567L8.50002 8.33852ZM4.97495 6.92845L5.01209 6.8356L4.97495 6.92845ZM4.97496 5.0715L4.93782 4.97865L4.97496 5.0715ZM16.1286 0.609977L16.0915 0.51713V0.51713L16.1286 0.609977ZM16.8714 0.609977L16.8343 0.702825V0.702825L16.8714 0.609977ZM28.0251 5.0715L27.9879 5.16435L28.0251 5.0715ZM28.0251 6.92845L27.9879 6.8356L28.0251 6.92845ZM26.1981 7.65927L26.1609 7.56642L25.9231 7.66154L26.1625 7.75272L26.1981 7.65927ZM27.5 8.15522H27.6V8.0863L27.5356 8.06177L27.5 8.15522ZM27.5 10.3316H27.4V10.4065L27.4719 10.4275L27.5 10.3316ZM28.2679 10.7986L28.3402 10.7294L28.2679 10.7986ZM28.7001 11.5866L28.7972 11.5628L28.7001 11.5866ZM28.2158 13.2542L28.1465 13.1821L28.1085 13.2186L28.1172 13.2706L28.2158 13.2542ZM28.8962 17.3355L28.9949 17.3191L28.8962 17.3355ZM27.5 18.5V18.4H27.4V18.5H27.5ZM27.5 19.5921H27.4V19.6629L27.4668 19.6864L27.5 19.5921ZM28.2234 20.1374L28.1419 20.1953L28.2234 20.1374ZM28.5 21L28.6 21.001L28.6 20.9997L28.5 21ZM28.4079 21.5L28.3141 21.4652L28.2642 21.6H28.4079V21.5ZM31 21.5V21.6H31.0003L31 21.5ZM31.9665 21.8509L32.0308 21.7744V21.7744L31.9665 21.8509ZM32.4783 22.7427L32.3797 22.7596L32.3797 22.7596L32.4783 22.7427ZM30.5 25.5V25.6H30.6V25.5H30.5ZM30.5 24.5H30.6V24.4H30.5V24.5ZM30.5 29V29.1H30.6V29H30.5ZM30.5 26.5H30.6V26.4H30.5V26.5ZM26.5 19.5V19.6H26.6V19.5H26.5ZM26.5 18.5H26.6V18.4H26.5V18.5ZM25.0764 17.5L25.1751 17.5164L25.1945 17.4H25.0764V17.5ZM20.5123 17.5V17.4H20.4993L20.4867 17.4033L20.5123 17.5ZM16.5 18L16.5011 17.9L16.499 17.9L16.5 18ZM12.4878 17.5L12.5133 17.4033L12.5008 17.4H12.4878V17.5ZM5.79291 17.7929L5.86362 17.8636H5.86363L5.79291 17.7929ZM24.2245 15.5V15.4H24.1827L24.1533 15.4298L24.2245 15.5ZM25.41 15.5L25.5087 15.5164L25.5281 15.4H25.41V15.5ZM22.9307 16.5L22.8807 16.4133L22.557 16.6H22.9307V16.5ZM25.2433 16.5V16.6H25.328L25.342 16.5164L25.2433 16.5ZM27.9095 17.5V17.6H28.0276L28.0082 17.4835L27.9095 17.5ZM26.0904 17.5L25.9917 17.4835L25.9723 17.6H26.0904V17.5ZM27.28 13.7217L27.3787 13.7052L27.3616 13.603L27.26 13.6237L27.28 13.7217ZM26.72 13.7217L26.74 13.6237L26.6384 13.603L26.6214 13.7052L26.72 13.7217ZM27.75 12H27.85V11.9999L27.75 12ZM27.6236 12.4166L27.7068 12.4722V12.4722L27.6236 12.4166ZM27.5301 11.4699L27.6008 11.3992V11.3992L27.5301 11.4699ZM27 11.25L27.0001 11.15H27V11.25ZM26.3071 11.713L26.3995 11.7512V11.7512L26.3071 11.713ZM26.2644 12.1463L26.3625 12.1268V12.1268L26.2644 12.1463ZM26.4697 12.5303L26.399 12.601V12.601L26.4697 12.5303ZM26.8537 12.7356L26.8732 12.6375H26.8732L26.8537 12.7356ZM27.287 12.6929L27.2488 12.6005L27.287 12.6929ZM26.5 8.84497H26.6V8.77606L26.5356 8.75152L26.5 8.84497ZM26.5 10.3318L26.5281 10.4278L26.6 10.4067V10.3318H26.5ZM24.8274 8.20752L24.863 8.11407L24.8265 8.10016L24.7903 8.11467L24.8274 8.20752ZM24.5 8.33852L24.4629 8.24567L24.4 8.27082V8.33852H24.5ZM24.5 14.5H24.4V14.6H24.5V14.5ZM25.5765 14.5V14.6H25.6612L25.6752 14.5164L25.5765 14.5ZM25.7842 13.2544L25.8829 13.2709L25.8915 13.2188L25.8535 13.1823L25.7842 13.2544ZM25.319 12.4854L25.4151 12.4575L25.319 12.4854ZM25.3 11.5869L25.2028 11.5631V11.5631L25.3 11.5869ZM16.5 1.53852L16.5372 1.44567L16.5 1.43081L16.4629 1.44567L16.5 1.53852ZM27.6538 5.99997L27.691 6.09282L27.9231 5.99997L27.691 5.90712L27.6538 5.99997ZM5.34622 5.99997L5.30908 5.90712L5.07696 5.99997L5.30908 6.09282L5.34622 5.99997ZM16.5 10.4614L16.4629 10.5543L16.5 10.5691L16.5372 10.5543L16.5 10.4614ZM23.4484 7.68227L23.4855 7.77512L23.7233 7.68L23.484 7.58882L23.4484 7.68227ZM16.7893 5.14529L16.8249 5.05184V5.05184L16.7893 5.14529ZM16.5 4.49999L16.5935 4.53559L16.5 4.49999ZM17.1453 4.21069L17.1809 4.11724L17.1453 4.21069ZM24.8188 7.13392L24.7832 7.22737L24.8197 7.24127L24.856 7.22677L24.8188 7.13392ZM16.8714 11.39L16.8343 11.2971L16.8714 11.39ZM23.5 8.73852H23.6V8.59082L23.4629 8.64567L23.5 8.73852ZM16.1286 11.39L16.1658 11.2971L16.1286 11.39ZM9.50002 8.73852L9.53716 8.64567L9.40002 8.59082V8.73852H9.50002ZM9.50002 14.811H9.40002V14.8514L9.42806 14.8805L9.50002 14.811ZM23.5 14.8105L23.572 14.8799L23.6 14.8509V14.8105H23.5ZM3.50002 18.5L3.40002 18.4999L3.40002 18.5001L3.50002 18.5ZM4.37966 16.3796L4.30895 16.3089V16.3089L4.37966 16.3796ZM4.37966 20.6203L4.45038 20.5496H4.45038L4.37966 20.6203ZM6.50002 21.5L6.49991 21.6H6.50002V21.5ZM27.3536 21.3535L27.4243 21.4242L27.4243 21.4242L27.3536 21.3535ZM5.08581 19.9142L5.15652 19.8435L5.08581 19.9142ZM5.08581 17.0858L5.15652 17.1565L5.08581 17.0858ZM10.0694 16.5V16.6H10.443L10.1193 16.4133L10.0694 16.5ZM8.77552 15.5L8.84677 15.4298L8.81739 15.4H8.77552V15.5ZM6.50002 15.5V15.4H6.49991L6.50002 15.5ZM31.3536 30.1464L31.4243 30.0757L31.4243 30.0757L31.3536 30.1464ZM31.3536 23.3535L31.4243 23.4242L31.4243 23.4242L31.3536 23.3535ZM2.74482 23.7448L2.67411 23.6741L2.74482 23.7448ZM2.74482 29.7552L2.67411 29.8259L2.74482 29.7552ZM31.5332 24.5022C31.889 24.377 32.1889 24.13 32.38 23.8049L32.2075 23.7036C32.0404 23.988 31.778 24.204 31.4668 24.3135L31.5332 24.5022ZM31.6 29.0921V24.4078H31.4V29.0921H31.6ZM32.38 29.6951C32.1889 29.3699 31.889 29.1229 31.5332 28.9978L31.4668 29.1865C31.778 29.2959 32.0404 29.512 32.2075 29.7964L32.38 29.6951ZM32.5768 30.7742C32.6407 30.4025 32.571 30.0202 32.38 29.6951L32.2075 29.7964C32.3746 30.0808 32.4356 30.4152 32.3797 30.7403L32.5768 30.7742ZM32.0308 31.7256C32.3195 31.4829 32.5129 31.1458 32.5768 30.7742L32.3797 30.7403C32.3238 31.0654 32.1546 31.3602 31.9021 31.5725L32.0308 31.7256ZM30.9998 32.1C31.3769 32.1009 31.7422 31.9682 32.0308 31.7256L31.9021 31.5725C31.6496 31.7847 31.3301 31.9008 31.0003 31.9L30.9998 32.1ZM5.75002 32.1H31V31.9H5.75002V32.1ZM2.267 30.8111C3.23685 31.6429 4.47236 32.1001 5.75003 32.1L5.75001 31.9C4.52011 31.9001 3.33079 31.46 2.3972 30.6593L2.267 30.8111ZM0.462382 27.5652C0.657007 28.828 1.29715 29.9794 2.267 30.8111L2.3972 30.6593C1.46361 29.8587 0.847397 28.7503 0.660048 27.5348L0.462382 27.5652ZM1.2059 23.9266C0.5315 25.0118 0.267757 26.3025 0.462382 27.5652L0.660048 27.5348C0.472699 26.3192 0.726582 25.0768 1.37577 24.0321L1.2059 23.9266ZM4.13922 21.6488C2.92082 22.0334 1.8803 22.8414 1.2059 23.9266L1.37577 24.0321C2.02495 22.9875 3.02657 22.2098 4.19942 21.8395L4.13922 21.6488ZM2.60673 19.7802C2.87887 20.6041 3.40565 21.3203 4.1111 21.8255L4.22754 21.6629C3.55654 21.1823 3.05549 20.5011 2.79664 19.7175L2.60673 19.7802ZM2.59689 17.2412C2.33114 18.0672 2.33459 18.9563 2.60673 19.7802L2.79664 19.7175C2.53778 18.9338 2.53451 18.0881 2.78728 17.3025L2.59689 17.2412ZM4.08536 15.1843C3.38385 15.695 2.86264 16.4152 2.59689 17.2412L2.78728 17.3025C3.04005 16.5168 3.53581 15.8318 4.20306 15.346L4.08536 15.1843ZM6.50013 14.4C5.63244 14.399 4.78687 14.6737 4.08536 15.1843L4.20306 15.346C4.87032 14.8603 5.6746 14.5991 6.49991 14.6L6.50013 14.4ZM8.50002 14.4H6.50002V14.6H8.50002V14.4ZM8.40002 8.33852V14.5H8.60002V8.33852H8.40002ZM4.93781 7.0213L8.46288 8.43137L8.53716 8.24567L5.01209 6.8356L4.93781 7.0213ZM4.93782 4.97865C4.01587 5.34744 4.01586 6.6525 4.93781 7.0213L5.01209 6.8356C4.25777 6.53386 4.25777 5.46608 5.0121 5.16435L4.93782 4.97865ZM16.0915 0.51713L4.93782 4.97865L5.0121 5.16435L16.1658 0.702825L16.0915 0.51713ZM16.9086 0.51713C16.6463 0.412226 16.3537 0.412226 16.0915 0.51713L16.1658 0.702825C16.3803 0.616995 16.6197 0.616995 16.8343 0.702825L16.9086 0.51713ZM28.0622 4.97865L16.9086 0.51713L16.8343 0.702825L27.9879 5.16435L28.0622 4.97865ZM28.0622 7.02129C28.9842 6.6525 28.9842 5.34744 28.0622 4.97865L27.9879 5.16435C28.7423 5.46608 28.7423 6.53386 27.9879 6.8356L28.0622 7.02129ZM26.2352 7.75212L28.0622 7.02129L27.9879 6.8356L26.1609 7.56642L26.2352 7.75212ZM27.5356 8.06177L26.2337 7.56582L26.1625 7.75272L27.4644 8.24867L27.5356 8.06177ZM27.6 10.3316V8.15522H27.4V10.3316H27.6ZM28.3402 10.7294C28.1175 10.4965 27.8374 10.3262 27.5281 10.2356L27.4719 10.4275C27.7476 10.5083 27.9971 10.6601 28.1957 10.8677L28.3402 10.7294ZM28.7972 11.5628C28.7205 11.2498 28.5629 10.9624 28.3402 10.7294L28.1957 10.8677C28.3942 11.0753 28.5346 11.3314 28.603 11.6104L28.7972 11.5628ZM28.7771 12.5131C28.8669 12.2035 28.8739 11.8759 28.7972 11.5628L28.603 11.6104C28.6713 11.8894 28.6651 12.1814 28.585 12.4573L28.7771 12.5131ZM28.2851 13.3263C28.5175 13.103 28.6872 12.8226 28.7771 12.5131L28.585 12.4573C28.5049 12.7331 28.3537 12.9831 28.1465 13.1821L28.2851 13.3263ZM28.9949 17.3191L28.3145 13.2377L28.1172 13.2706L28.7976 17.352L28.9949 17.3191ZM27.9099 18.6C28.5896 18.6 29.1067 17.9896 28.9949 17.3191L28.7976 17.352C28.8891 17.9006 28.466 18.4 27.9099 18.4V18.6ZM27.5 18.6H27.9099V18.4H27.5V18.6ZM27.6 19.5921V18.5H27.4V19.5921H27.6ZM28.3049 20.0795C28.1139 19.8106 27.8444 19.6074 27.5332 19.4978L27.4668 19.6864C27.739 19.7823 27.9748 19.9601 28.1419 20.1953L28.3049 20.0795ZM28.6 20.9997C28.599 20.6698 28.4959 20.3484 28.3049 20.0795L28.1419 20.1953C28.309 20.4305 28.3991 20.7117 28.4 21.0003L28.6 20.9997ZM28.5016 21.5347C28.5649 21.3638 28.5982 21.1832 28.6 21.001L28.4 20.999C28.3985 21.1582 28.3694 21.3159 28.3141 21.4652L28.5016 21.5347ZM31 21.4H28.4079V21.6H31V21.4ZM32.0308 21.7744C31.7422 21.5317 31.3769 21.3991 30.9998 21.4L31.0003 21.6C31.3301 21.5992 31.6496 21.7152 31.9021 21.9275L32.0308 21.7744ZM32.5768 22.7258C32.5129 22.3541 32.3195 22.0171 32.0308 21.7744L31.9021 21.9275C32.1546 22.1397 32.3238 22.4345 32.3797 22.7596L32.5768 22.7258ZM32.38 23.8049C32.571 23.4797 32.6407 23.0974 32.5768 22.7258L32.3797 22.7596C32.4356 23.0847 32.3746 23.4191 32.2075 23.7036L32.38 23.8049ZM30.5 25.4H22V25.6H30.5V25.4ZM30.4 24.5V25.5H30.6V24.5H30.4ZM5.66142 24.6H30.5V24.4H5.66142V24.6ZM4.14114 25.2297C4.54434 24.8265 5.0912 24.6 5.66142 24.6V24.4C5.03816 24.4 4.44043 24.6476 3.99972 25.0883L4.14114 25.2297ZM3.51142 26.75C3.51142 26.1798 3.73794 25.6329 4.14114 25.2297L3.99972 25.0883C3.55901 25.529 3.31142 26.1267 3.31142 26.75H3.51142ZM4.14114 28.2703C3.73794 27.867 3.51142 27.3202 3.51142 26.75H3.31142C3.31142 27.3732 3.55901 27.971 3.99972 28.4117L4.14114 28.2703ZM5.66142 28.9C5.0912 28.9 4.54434 28.6735 4.14114 28.2703L3.99972 28.4117C4.44043 28.8524 5.03816 29.1 5.66142 29.1V28.9ZM30.5 28.9H5.66142V29.1H30.5V28.9ZM30.4 26.5V29H30.6V26.5H30.4ZM22 26.6H30.5V26.4H22V26.6ZM21.4 26C21.4 26.3313 21.6686 26.6 22 26.6V26.4C21.7791 26.4 21.6 26.2209 21.6 26H21.4ZM22 25.4C21.6686 25.4 21.4 25.6686 21.4 26H21.6C21.6 25.7791 21.7791 25.6 22 25.6V25.4ZM26.5 19.4H6.50002V19.6H26.5V19.4ZM26.4 18.5V19.5H26.6V18.5H26.4ZM25.9235 18.6H26.5V18.4H25.9235V18.6ZM24.9778 17.4835C24.8803 18.0679 25.331 18.6 25.9235 18.6V18.4C25.4546 18.4 25.0979 17.9789 25.1751 17.5164L24.9778 17.4835ZM20.5123 17.6H25.0764V17.4H20.5123V17.6ZM16.499 18.1C17.8618 18.1145 19.2203 17.9452 20.5378 17.5966L20.4867 17.4033C19.1865 17.7473 17.8459 17.9144 16.5011 17.9L16.499 18.1ZM12.4622 17.5966C13.7797 17.9452 15.1383 18.1145 16.5011 18.1L16.499 17.9C15.1541 17.9143 13.8135 17.7473 12.5133 17.4033L12.4622 17.5966ZM6.50002 17.6H12.4878V17.4H6.50002V17.6ZM5.86363 17.8636C6.03241 17.6948 6.26133 17.6 6.50002 17.6V17.4C6.20828 17.4 5.92849 17.5159 5.7222 17.7222L5.86363 17.8636ZM5.60002 18.5C5.60002 18.2613 5.69484 18.0324 5.86362 17.8636L5.7222 17.7222C5.51591 17.9284 5.40002 18.2082 5.40002 18.5H5.60002ZM5.86362 19.1364C5.69484 18.9676 5.60002 18.7387 5.60002 18.5H5.40002C5.40002 18.7917 5.51591 19.0715 5.7222 19.2778L5.86362 19.1364ZM6.50002 19.4C6.26133 19.4 6.03241 19.3051 5.86362 19.1364L5.7222 19.2778C5.92849 19.4841 6.20828 19.6 6.50002 19.6V19.4ZM24.2245 15.6H25.41V15.4H24.2245V15.6ZM22.9806 16.5866C23.4628 16.3086 23.9052 15.9667 24.2958 15.5701L24.1533 15.4298C23.7754 15.8135 23.3473 16.1444 22.8807 16.4133L22.9806 16.5866ZM25.2433 16.4H22.9307V16.6H25.2433V16.4ZM25.3114 15.4835L25.1447 16.4835L25.342 16.5164L25.5087 15.5164L25.3114 15.4835ZM27.9095 17.4H26.0904V17.6H27.9095V17.4ZM27.1814 13.7381L27.8109 17.5164L28.0082 17.4835L27.3787 13.7052L27.1814 13.7381ZM26.7 13.8196C26.898 13.8601 27.1021 13.8601 27.3 13.8196L27.26 13.6237C27.0885 13.6587 26.9116 13.6587 26.74 13.6237L26.7 13.8196ZM26.189 17.5164L26.8187 13.7381L26.6214 13.7052L25.9917 17.4835L26.189 17.5164ZM27.65 12C27.65 12.1285 27.6119 12.2542 27.5405 12.3611L27.7068 12.4722C27.8002 12.3324 27.85 12.1681 27.85 12H27.65ZM27.4594 11.5406C27.5813 11.6625 27.6498 11.8277 27.65 12.0001L27.85 11.9999C27.8498 11.7745 27.7601 11.5585 27.6008 11.3992L27.4594 11.5406ZM26.9999 11.35C27.1723 11.3502 27.3375 11.4187 27.4594 11.5406L27.6008 11.3992C27.4415 11.2398 27.2255 11.1502 27.0001 11.15L26.9999 11.35ZM26.6389 11.4595C26.7458 11.3881 26.8715 11.35 27 11.35V11.15C26.8319 11.15 26.6676 11.1998 26.5278 11.2932L26.6389 11.4595ZM26.3995 11.7512C26.4487 11.6325 26.532 11.5309 26.6389 11.4595L26.5278 11.2932C26.388 11.3866 26.2791 11.5194 26.2147 11.6747L26.3995 11.7512ZM26.3625 12.1268C26.3374 12.0007 26.3503 11.87 26.3995 11.7512L26.2147 11.6747C26.1504 11.83 26.1336 12.0009 26.1664 12.1658L26.3625 12.1268ZM26.5404 12.4596C26.4495 12.3687 26.3876 12.2529 26.3625 12.1268L26.1664 12.1658C26.1992 12.3307 26.2801 12.4821 26.399 12.601L26.5404 12.4596ZM26.8732 12.6375C26.7471 12.6124 26.6313 12.5505 26.5404 12.4596L26.399 12.601C26.5179 12.7199 26.6693 12.8008 26.8342 12.8336L26.8732 12.6375ZM27.2488 12.6005C27.13 12.6497 26.9993 12.6626 26.8732 12.6375L26.8342 12.8336C26.9991 12.8664 27.17 12.8496 27.3253 12.7853L27.2488 12.6005ZM27.5405 12.3611C27.4691 12.468 27.3675 12.5513 27.2488 12.6005L27.3253 12.7853C27.4806 12.7209 27.6134 12.612 27.7068 12.4722L27.5405 12.3611ZM26.4 8.84497V10.3318H26.6V8.84497H26.4ZM24.7918 8.30096L26.4644 8.93841L26.5356 8.75152L24.863 8.11407L24.7918 8.30096ZM24.5372 8.43136L24.8646 8.30036L24.7903 8.11467L24.4629 8.24567L24.5372 8.43136ZM24.6 14.5V8.33852H24.4V14.5H24.6ZM25.5765 14.4H24.5V14.6H25.5765V14.4ZM25.6856 13.238L25.4779 14.4835L25.6752 14.5164L25.8829 13.2709L25.6856 13.238ZM25.223 12.5133C25.3129 12.8228 25.4825 13.1033 25.7149 13.3265L25.8535 13.1823C25.6464 12.9833 25.4952 12.7334 25.4151 12.4575L25.223 12.5133ZM25.2028 11.5631C25.1262 11.8761 25.1331 12.2038 25.223 12.5133L25.4151 12.4575C25.335 12.1817 25.3288 11.8896 25.3971 11.6106L25.2028 11.5631ZM25.6598 10.7297C25.4371 10.9626 25.2795 11.25 25.2028 11.5631L25.3971 11.6106C25.4654 11.3317 25.6059 11.0755 25.8044 10.8679L25.6598 10.7297ZM26.4719 10.2359C26.1626 10.3265 25.8826 10.4968 25.6598 10.7297L25.8044 10.8679C26.0029 10.6603 26.2525 10.5085 26.5281 10.4278L26.4719 10.2359ZM16.4629 1.63137L27.6167 6.09282L27.691 5.90712L16.5372 1.44567L16.4629 1.63137ZM5.38336 6.09282L16.5372 1.63137L16.4629 1.44567L5.30908 5.90712L5.38336 6.09282ZM16.5372 10.3686L5.38336 5.90712L5.30908 6.09282L16.4629 10.5543L16.5372 10.3686ZM23.4112 7.58942L16.4629 10.3686L16.5372 10.5543L23.4855 7.77512L23.4112 7.58942ZM16.7537 5.23873L23.4128 7.77572L23.484 7.58882L16.8249 5.05184L16.7537 5.23873ZM16.4066 4.46439C16.2886 4.77408 16.444 5.12075 16.7537 5.23874L16.8249 5.05184C16.6184 4.97318 16.5148 4.74205 16.5935 4.53559L16.4066 4.46439ZM17.1809 4.11724C16.8712 3.99926 16.5245 4.15469 16.4066 4.46439L16.5935 4.53559C16.6721 4.32911 16.9033 4.22548 17.1097 4.30414L17.1809 4.11724ZM24.8544 7.04047L17.1809 4.11724L17.1097 4.30414L24.7832 7.22737L24.8544 7.04047ZM27.6167 5.90712L24.7817 7.04107L24.856 7.22677L27.691 6.09282L27.6167 5.90712ZM16.9086 11.4828L23.5372 8.83137L23.4629 8.64567L16.8343 11.2971L16.9086 11.4828ZM16.0915 11.4828C16.3537 11.5877 16.6463 11.5877 16.9086 11.4828L16.8343 11.2971C16.6197 11.3829 16.3803 11.3829 16.1658 11.2971L16.0915 11.4828ZM9.46288 8.83137L16.0915 11.4828L16.1658 11.2971L9.53716 8.64567L9.46288 8.83137ZM9.60002 14.811V8.73852H9.40002V14.811H9.60002ZM16.5 16.9C11.9461 16.9 9.99801 15.1831 9.57198 14.7416L9.42806 14.8805C9.88973 15.3589 11.8889 17.1 16.5 17.1V16.9ZM23.428 14.7411C22.9979 15.187 21.0492 16.9 16.5 16.9V17.1C21.1062 17.1 23.1061 15.3629 23.572 14.8799L23.428 14.7411ZM23.4 8.73852V14.8105H23.6V8.73852H23.4ZM3.60002 18.5001C3.60086 17.7312 3.90668 16.994 4.45038 16.4503L4.30895 16.3089C3.72781 16.89 3.40092 17.678 3.40002 18.4999L3.60002 18.5001ZM4.45038 20.5496C3.90668 20.0059 3.60086 19.2688 3.60002 18.4999L3.40002 18.5001C3.40092 19.3219 3.72781 20.1099 4.30895 20.691L4.45038 20.5496ZM6.50013 21.4C5.73123 21.3991 4.99407 21.0933 4.45038 20.5496L4.30895 20.691C4.8901 21.2722 5.67805 21.5991 6.49991 21.6L6.50013 21.4ZM27 21.4H6.50002V21.6H27V21.4ZM27.2829 21.2828C27.2078 21.3578 27.1061 21.4 27 21.4V21.6C27.1592 21.6 27.3118 21.5368 27.4243 21.4242L27.2829 21.2828ZM27.4 21C27.4 21.1061 27.3579 21.2078 27.2829 21.2828L27.4243 21.4242C27.5368 21.3117 27.6 21.1591 27.6 21H27.4ZM27.2829 20.7171C27.3579 20.7921 27.4 20.8939 27.4 21H27.6C27.6 20.8408 27.5368 20.6882 27.4243 20.5757L27.2829 20.7171ZM27 20.6C27.1061 20.6 27.2078 20.6421 27.2829 20.7171L27.4243 20.5757C27.3118 20.4632 27.1592 20.4 27 20.4V20.6ZM6.50002 20.6H27V20.4H6.50002V20.6ZM5.0151 19.9849C5.40892 20.3787 5.94307 20.6 6.50002 20.6V20.4C5.99611 20.4 5.51284 20.1998 5.15652 19.8435L5.0151 19.9849ZM4.40002 18.5C4.40002 19.0569 4.62127 19.5911 5.0151 19.9849L5.15652 19.8435C4.8002 19.4872 4.60002 19.0039 4.60002 18.5H4.40002ZM5.0151 17.015C4.62127 17.4089 4.40002 17.943 4.40002 18.5H4.60002C4.60002 17.9961 4.8002 17.5128 5.15652 17.1565L5.0151 17.015ZM6.50002 16.4C5.94307 16.4 5.40892 16.6212 5.0151 17.015L5.15652 17.1565C5.51284 16.8001 5.99611 16.6 6.50002 16.6V16.4ZM10.0694 16.4H6.50002V16.6H10.0694V16.4ZM8.70427 15.5701C9.09483 15.9667 9.53723 16.3086 10.0194 16.5866L10.1193 16.4133C9.65274 16.1444 9.22468 15.8135 8.84677 15.4298L8.70427 15.5701ZM6.50002 15.6H8.77552V15.4H6.50002V15.6ZM4.45038 16.4503C4.99407 15.9066 5.73123 15.6008 6.50013 15.6L6.49991 15.4C5.67805 15.4009 4.8901 15.7278 4.30895 16.3089L4.45038 16.4503ZM31 30.9H5.75002V31.1H31V30.9ZM31.2829 30.7828C31.2078 30.8578 31.1061 30.9 31 30.9V31.1C31.1592 31.1 31.3118 31.0368 31.4243 30.9242L31.2829 30.7828ZM31.4 30.5C31.4 30.6061 31.3579 30.7078 31.2829 30.7828L31.4243 30.9242C31.5368 30.8117 31.6 30.6591 31.6 30.5H31.4ZM31.2829 30.2171C31.3579 30.2921 31.4 30.3939 31.4 30.5H31.6C31.6 30.3408 31.5368 30.1882 31.4243 30.0757L31.2829 30.2171ZM31 30.1C31.1061 30.1 31.2078 30.1421 31.2829 30.2171L31.4243 30.0757C31.3118 29.9632 31.1592 29.9 31 29.9V30.1ZM5.66142 30.1H31V29.9H5.66142V30.1ZM3.29261 29.1188C3.92086 29.747 4.77295 30.1 5.66142 30.1V29.9C4.82599 29.9 4.02477 29.5681 3.43403 28.9774L3.29261 29.1188ZM2.31142 26.75C2.31142 27.6384 2.66437 28.4905 3.29261 29.1188L3.43403 28.9774C2.84329 28.3866 2.51142 27.5854 2.51142 26.75H2.31142ZM3.29261 24.3812C2.66437 25.0094 2.31142 25.8615 2.31142 26.75H2.51142C2.51142 25.9145 2.84329 25.1133 3.43403 24.5226L3.29261 24.3812ZM5.66142 23.4C4.77295 23.4 3.92086 23.7529 3.29261 24.3812L3.43403 24.5226C4.02477 23.9318 4.82599 23.6 5.66142 23.6V23.4ZM31 23.4H5.66142V23.6H31V23.4ZM31.2829 23.2828C31.2078 23.3578 31.1061 23.4 31 23.4V23.6C31.1592 23.6 31.3118 23.5368 31.4243 23.4242L31.2829 23.2828ZM31.4 23C31.4 23.1061 31.3579 23.2078 31.2829 23.2828L31.4243 23.4242C31.5368 23.3117 31.6 23.1591 31.6 23H31.4ZM31.2829 22.7171C31.3579 22.7921 31.4 22.8939 31.4 23H31.6C31.6 22.8408 31.5368 22.6882 31.4243 22.5757L31.2829 22.7171ZM31 22.6C31.1061 22.6 31.2078 22.6421 31.2829 22.7171L31.4243 22.5757C31.3118 22.4632 31.1592 22.4 31 22.4V22.6ZM5.75002 22.6H31V22.4H5.75002V22.6ZM2.81553 23.8155C3.5938 23.0372 4.64937 22.6 5.75002 22.6V22.4C4.59633 22.4 3.48989 22.8583 2.67411 23.6741L2.81553 23.8155ZM1.60002 26.75C1.60002 25.6493 2.03725 24.5938 2.81553 23.8155L2.67411 23.6741C1.85832 24.4898 1.40002 25.5963 1.40002 26.75H1.60002ZM2.81553 29.6845C2.03725 28.9062 1.60002 27.8506 1.60002 26.75H1.40002C1.40002 27.9037 1.85832 29.0101 2.67411 29.8259L2.81553 29.6845ZM5.75002 30.9C4.64937 30.9 3.5938 30.4627 2.81553 29.6845L2.67411 29.8259C3.48989 30.6417 4.59633 31.1 5.75002 31.1V30.9ZM19 26.9H6V27.1H19V26.9ZM19.6 27.5C19.6 27.1686 19.3314 26.9 19 26.9V27.1C19.2209 27.1 19.4 27.2791 19.4 27.5H19.6ZM19 28.1C19.3314 28.1 19.6 27.8314 19.6 27.5H19.4C19.4 27.7209 19.2209 27.9 19 27.9V28.1ZM6 28.1H19V27.9H6V28.1ZM5.4 27.5C5.4 27.8314 5.66863 28.1 6 28.1V27.9C5.77909 27.9 5.6 27.7209 5.6 27.5H5.4ZM6 26.9C5.66863 26.9 5.4 27.1686 5.4 27.5H5.6C5.6 27.2791 5.77909 27.1 6 27.1V26.9Z" fill="#4F4F4F"/>
</g>
<defs>
<clipPath id="clip0_741_36639">
<rect width="32" height="32" fill="white" transform="translate(0.5)"/>
</clipPath>
</defs>
</svg>
